RedHatDisplay-Medium.ufo
<glyph name="exclam" format="2">
  <advance width="216"/>
  <unicode hex="0021"/>
  <outline>
    <contour>
      <point x="69" y="200" type="line"/>
      <point x="147" y="200" type="line"/>
      <point x="159" y="725" type="line"/>
      <point x="56" y="725" type="line"/>
    </contour>
    <contour>
      <point x="108" y="-8" type="curve" smooth="yes"/>
      <point x="143" y="-8"/>
      <point x="171" y="21"/>
      <point x="171" y="56" type="curve" smooth="yes"/>
      <point x="171" y="91"/>
      <point x="143" y="119"/>
      <point x="108" y="119" type="curve" smooth="yes"/>
      <point x="73" y="119"/>
      <point x="44" y="91"/>
      <point x="44" y="56" type="curve" smooth="yes"/>
      <point x="44" y="21"/>
      <point x="73" y="-8"/>
    </contour>
  </outline>
</glyph>
<glyph name="dollar" format="2">
  <advance width="581"/>
  <unicode hex="0024"/>
  <outline>
    <contour>
      <point x="257" y="-75" type="line"/>
      <point x="314" y="-75" type="line"/>
      <point x="314" y="18" type="line"/>
      <point x="459" y="25"/>
      <point x="553" y="100"/>
      <point x="553" y="212" type="curve"/>
      <point x="553" y="308"/>
      <point x="498" y="357"/>
      <point x="356" y="386" type="curve" smooth="yes"/>
      <point x="314" y="394" type="line"/>
      <point x="314" y="596" type="line"/>
      <point x="371" y="586"/>
      <point x="430" y="562"/>
      <point x="491" y="522" type="curve"/>
      <point x="537" y="598" type="line"/>
      <point x="470" y="644"/>
      <point x="393" y="672"/>
      <point x="314" y="681" type="curve"/>
      <point x="314" y="759" type="line"/>
      <point x="257" y="759" type="line"/>
      <point x="257" y="683" type="line"/>
      <point x="120" y="680"/>
      <point x="30" y="607"/>
      <point x="30" y="496" type="curve"/>
      <point x="30" y="397"/>
      <point x="81" y="349"/>
      <point x="214" y="322" type="curve" smooth="yes"/>
      <point x="257" y="313" type="line"/>
      <point x="257" y="102" type="line"/>
      <point x="188" y="112"/>
      <point x="123" y="146"/>
      <point x="72" y="199" type="curve"/>
      <point x="16" y="131" type="line"/>
      <point x="78" y="66"/>
      <point x="163" y="28"/>
      <point x="257" y="20" type="curve"/>
    </contour>
    <contour>
      <point x="245" y="406" type="line" smooth="yes"/>
      <point x="151" y="424"/>
      <point x="123" y="447"/>
      <point x="123" y="504" type="curve" smooth="yes"/>
      <point x="123" y="561"/>
      <point x="177" y="598"/>
      <point x="257" y="600" type="curve"/>
      <point x="257" y="404" type="line"/>
    </contour>
    <contour>
      <point x="324" y="303" type="line" smooth="yes"/>
      <point x="428" y="283"/>
      <point x="456" y="261"/>
      <point x="456" y="205" type="curve"/>
      <point x="456" y="146"/>
      <point x="398" y="104"/>
      <point x="314" y="99" type="curve"/>
      <point x="314" y="305" type="line"/>
    </contour>
  </outline>
</glyph>
<glyph name="ampersand" format="2">
  <advance width="666"/>
  <unicode hex="0026"/>
  <outline>
    <contour>
      <point x="651" y="55" type="line"/>
      <point x="616" y="82"/>
      <point x="577" y="113"/>
      <point x="537" y="147" type="curve"/>
      <point x="576" y="206"/>
      <point x="605" y="280"/>
      <point x="623" y="367" type="curve"/>
      <point x="534" y="381" type="line"/>
      <point x="521" y="314"/>
      <point x="501" y="254"/>
      <point x="472" y="205" type="curve"/>
      <point x="412" y="260"/>
      <point x="353" y="317"/>
      <point x="304" y="370" type="curve"/>
      <point x="355" y="401" type="line" smooth="yes"/>
      <point x="428" y="444"/>
      <point x="462" y="495"/>
      <point x="462" y="558" type="curve" smooth="yes"/>
      <point x="462" y="647"/>
      <point x="390" y="711"/>
      <point x="291" y="711" type="curve" smooth="yes"/>
      <point x="187" y="711"/>
      <point x="111" y="638"/>
      <point x="111" y="542" type="curve"/>
      <point x="111" y="487"/>
      <point x="128" y="444"/>
      <point x="173" y="386" type="curve"/>
      <point x="162" y="380" type="line" smooth="yes"/>
      <point x="63" y="326"/>
      <point x="25" y="272"/>
      <point x="25" y="188" type="curve"/>
      <point x="25" y="69"/>
      <point x="120" y="-10"/>
      <point x="263" y="-10" type="curve" smooth="yes"/>
      <point x="348" y="-10"/>
      <point x="422" y="18"/>
      <point x="481" y="73" type="curve"/>
      <point x="518" y="41"/>
      <point x="555" y="11"/>
      <point x="591" y="-16" type="curve"/>
    </contour>
    <contour>
      <point x="203" y="543" type="curve"/>
      <point x="203" y="596"/>
      <point x="238" y="634"/>
      <point x="288" y="634" type="curve" smooth="yes"/>
      <point x="334" y="634"/>
      <point x="370" y="600"/>
      <point x="370" y="555" type="curve" smooth="yes"/>
      <point x="370" y="516"/>
      <point x="349" y="485"/>
      <point x="305" y="459" type="curve" smooth="yes"/>
      <point x="254" y="429" type="line"/>
      <point x="216" y="477"/>
      <point x="203" y="507"/>
    </contour>
    <contour>
      <point x="119" y="194" type="curve"/>
      <point x="119" y="246"/>
      <point x="145" y="281"/>
      <point x="212" y="319" type="curve" smooth="yes"/>
      <point x="223" y="325" type="line"/>
      <point x="279" y="261"/>
      <point x="347" y="193"/>
      <point x="417" y="129" type="curve"/>
      <point x="375" y="91"/>
      <point x="326" y="71"/>
      <point x="269" y="71" type="curve" smooth="yes"/>
      <point x="178" y="71"/>
      <point x="119" y="119"/>
    </contour>
  </outline>
</glyph>
<glyph name="asterisk" format="2">
  <advance width="458"/>
  <unicode hex="002A"/>
  <outline>
    <contour>
      <point x="373" y="390" type="line"/>
      <point x="412" y="447" type="line"/>
      <point x="292" y="518" type="line"/>
      <point x="410" y="588" type="line"/>
      <point x="371" y="644" type="line"/>
      <point x="262" y="576" type="line"/>
      <point x="264" y="700" type="line"/>
      <point x="195" y="700" type="line"/>
      <point x="197" y="575" type="line"/>
      <point x="87" y="644" type="line"/>
      <point x="49" y="588" type="line"/>
      <point x="167" y="518" type="line"/>
      <point x="47" y="447" type="line"/>
      <point x="84" y="390" type="line"/>
      <point x="197" y="460" type="line"/>
      <point x="195" y="331" type="line"/>
      <point x="264" y="331" type="line"/>
      <point x="262" y="459" type="line"/>
    </contour>
  </outline>
</glyph>
<glyph name="plus" format="2">
  <advance width="535"/>
  <unicode hex="002B"/>
  <outline>
    <contour>
      <point x="308" y="139" type="line"/>
      <point x="308" y="318" type="line"/>
      <point x="484" y="318" type="line"/>
      <point x="484" y="398" type="line"/>
      <point x="308" y="398" type="line"/>
      <point x="308" y="574" type="line"/>
      <point x="227" y="574" type="line"/>
      <point x="227" y="398" type="line"/>
      <point x="51" y="398" type="line"/>
      <point x="51" y="318" type="line"/>
      <point x="227" y="318" type="line"/>
      <point x="227" y="139" type="line"/>
    </contour>
  </outline>
</glyph>
<glyph name="period" format="2">
  <advance width="216"/>
  <unicode hex="002E"/>
  <outline>
    <contour>
      <point x="108" y="119" type="curve" smooth="yes"/>
      <point x="73" y="119"/>
      <point x="44" y="91"/>
      <point x="44" y="56" type="curve" smooth="yes"/>
      <point x="44" y="21"/>
      <point x="73" y="-8"/>
      <point x="108" y="-8" type="curve" smooth="yes"/>
      <point x="143" y="-8"/>
      <point x="171" y="21"/>
      <point x="171" y="56" type="curve" smooth="yes"/>
      <point x="171" y="91"/>
      <point x="143" y="119"/>
    </contour>
  </outline>
</glyph>
<glyph name="zero" format="2">
  <advance width="671"/>
  <unicode hex="0030"/>
  <outline>
    <contour>
      <point x="335" y="-10" type="curve" smooth="yes"/>
      <point x="510" y="-10"/>
      <point x="630" y="136"/>
      <point x="630" y="350" type="curve"/>
      <point x="630" y="564"/>
      <point x="510" y="710"/>
      <point x="335" y="710" type="curve" smooth="yes"/>
      <point x="161" y="710"/>
      <point x="41" y="564"/>
      <point x="41" y="350" type="curve"/>
      <point x="41" y="136"/>
      <point x="160" y="-10"/>
    </contour>
    <contour>
      <point x="335" y="78" type="curve" smooth="yes"/>
      <point x="215" y="78"/>
      <point x="138" y="183"/>
      <point x="138" y="350" type="curve"/>
      <point x="138" y="517"/>
      <point x="215" y="623"/>
      <point x="335" y="623" type="curve" smooth="yes"/>
      <point x="456" y="623"/>
      <point x="532" y="517"/>
      <point x="532" y="350" type="curve"/>
      <point x="532" y="183"/>
      <point x="456" y="78"/>
    </contour>
  </outline>
</glyph>
<glyph name="three" format="2">
  <advance width="596"/>
  <unicode hex="0033"/>
  <outline>
    <contour>
      <point x="550" y="193" type="curve"/>
      <point x="550" y="270"/>
      <point x="495" y="331"/>
      <point x="410" y="356" type="curve"/>
      <point x="481" y="389"/>
      <point x="524" y="448"/>
      <point x="524" y="519" type="curve"/>
      <point x="524" y="631"/>
      <point x="423" y="711"/>
      <point x="283" y="711" type="curve"/>
      <point x="186" y="711"/>
      <point x="97" y="673"/>
      <point x="28" y="604" type="curve"/>
      <point x="95" y="540" type="line"/>
      <point x="157" y="601"/>
      <point x="208" y="624"/>
      <point x="281" y="624" type="curve"/>
      <point x="363" y="624"/>
      <point x="425" y="576"/>
      <point x="425" y="512" type="curve"/>
      <point x="425" y="442"/>
      <point x="364" y="390"/>
      <point x="282" y="390" type="curve" smooth="yes"/>
      <point x="229" y="390" type="line"/>
      <point x="229" y="309" type="line"/>
      <point x="290" y="309" type="line" smooth="yes"/>
      <point x="386" y="309"/>
      <point x="449" y="264"/>
      <point x="449" y="198" type="curve"/>
      <point x="449" y="126"/>
      <point x="382" y="76"/>
      <point x="284" y="76" type="curve"/>
      <point x="203" y="76"/>
      <point x="146" y="99"/>
      <point x="87" y="156" type="curve"/>
      <point x="20" y="93" type="line"/>
      <point x="87" y="26"/>
      <point x="181" y="-10"/>
      <point x="285" y="-10" type="curve"/>
      <point x="439" y="-10"/>
      <point x="550" y="75"/>
    </contour>
  </outline>
</glyph>
<glyph name="five" format="2">
  <advance width="582"/>
  <unicode hex="0035"/>
  <note>
Version created Sun Jan 27 17:40:50 2019
</note>
  <outline>
    <contour>
      <point x="64" y="346" type="line"/>
      <point x="126" y="326" type="line"/>
      <point x="174" y="346"/>
      <point x="223" y="356"/>
      <point x="272" y="356" type="curve" smooth="yes"/>
      <point x="374" y="356"/>
      <point x="445" y="300"/>
      <point x="445" y="218" type="curve" smooth="yes"/>
      <point x="445" y="132"/>
      <point x="379" y="74"/>
      <point x="281" y="74" type="curve" smooth="yes"/>
      <point x="206" y="74"/>
      <point x="149" y="97"/>
      <point x="86" y="152" type="curve"/>
      <point x="25" y="84" type="line"/>
      <point x="94" y="22"/>
      <point x="181" y="-10"/>
      <point x="279" y="-10" type="curve" smooth="yes"/>
      <point x="439" y="-10"/>
      <point x="546" y="84"/>
      <point x="546" y="223" type="curve" smooth="yes"/>
      <point x="546" y="350"/>
      <point x="444" y="437"/>
      <point x="293" y="437" type="curve" smooth="yes"/>
      <point x="244" y="437"/>
      <point x="199" y="429"/>
      <point x="154" y="413" type="curve"/>
      <point x="163" y="615" type="line"/>
      <point x="508" y="615" type="line"/>
      <point x="508" y="700" type="line"/>
      <point x="81" y="700" type="line"/>
    </contour>
  </outline>
</glyph>
<glyph name="six" format="2">
  <advance width="622"/>
  <unicode hex="0036"/>
  <outline>
    <contour>
      <point x="334" y="-10" type="curve"/>
      <point x="479" y="-10"/>
      <point x="586" y="87"/>
      <point x="586" y="220" type="curve" smooth="yes"/>
      <point x="586" y="346"/>
      <point x="484" y="437"/>
      <point x="343" y="437" type="curve"/>
      <point x="264" y="437"/>
      <point x="189" y="402"/>
      <point x="139" y="345" type="curve"/>
      <point x="145" y="521"/>
      <point x="229" y="622"/>
      <point x="367" y="622" type="curve" smooth="yes"/>
      <point x="417" y="622"/>
      <point x="462" y="609"/>
      <point x="504" y="581" type="curve"/>
      <point x="557" y="655" type="line"/>
      <point x="509" y="689"/>
      <point x="440" y="710"/>
      <point x="373" y="710" type="curve" smooth="yes"/>
      <point x="173" y="710"/>
      <point x="40" y="560"/>
      <point x="40" y="329" type="curve" smooth="yes"/>
      <point x="40" y="129"/>
      <point x="160" y="-10"/>
    </contour>
    <contour>
      <point x="326" y="357" type="curve"/>
      <point x="421" y="357"/>
      <point x="487" y="300"/>
      <point x="487" y="217" type="curve" smooth="yes"/>
      <point x="487" y="136"/>
      <point x="421" y="75"/>
      <point x="331" y="75" type="curve"/>
      <point x="234" y="75"/>
      <point x="162" y="150"/>
      <point x="144" y="263" type="curve"/>
      <point x="191" y="323"/>
      <point x="257" y="357"/>
    </contour>
  </outline>
</glyph>
<glyph name="seven" format="2">
  <advance width="574"/>
  <unicode hex="0037"/>
  <outline>
    <contour>
      <point x="96" y="0" type="line"/>
      <point x="212" y="0" type="line"/>
      <point x="557" y="625" type="line"/>
      <point x="557" y="700" type="line"/>
      <point x="17" y="700" type="line"/>
      <point x="17" y="613" type="line"/>
      <point x="444" y="613" type="line"/>
    </contour>
  </outline>
</glyph>
<glyph name="eight" format="2">
  <advance width="622"/>
  <unicode hex="0038"/>
  <note>
Version created Tue Sep 18 15:49:42 2018
</note>
  <outline>
    <contour>
      <point x="311" y="-10" type="curve"/>
      <point x="468" y="-10"/>
      <point x="580" y="74"/>
      <point x="580" y="192" type="curve" smooth="yes"/>
      <point x="580" y="270"/>
      <point x="525" y="336"/>
      <point x="443" y="365" type="curve"/>
      <point x="510" y="395"/>
      <point x="554" y="454"/>
      <point x="554" y="523" type="curve" smooth="yes"/>
      <point x="554" y="630"/>
      <point x="449" y="711"/>
      <point x="311" y="711" type="curve"/>
      <point x="172" y="711"/>
      <point x="68" y="630"/>
      <point x="68" y="523" type="curve" smooth="yes"/>
      <point x="68" y="454"/>
      <point x="112" y="395"/>
      <point x="179" y="365" type="curve"/>
      <point x="97" y="336"/>
      <point x="42" y="270"/>
      <point x="42" y="192" type="curve" smooth="yes"/>
      <point x="42" y="74"/>
      <point x="154" y="-10"/>
    </contour>
    <contour>
      <point x="311" y="404" type="curve"/>
      <point x="229" y="404"/>
      <point x="166" y="454"/>
      <point x="166" y="517" type="curve"/>
      <point x="166" y="581"/>
      <point x="228" y="631"/>
      <point x="311" y="631" type="curve"/>
      <point x="394" y="631"/>
      <point x="457" y="581"/>
      <point x="457" y="517" type="curve"/>
      <point x="457" y="454"/>
      <point x="393" y="404"/>
    </contour>
    <contour>
      <point x="311" y="71" type="curve"/>
      <point x="214" y="71"/>
      <point x="141" y="125"/>
      <point x="141" y="198" type="curve"/>
      <point x="141" y="270"/>
      <point x="214" y="324"/>
      <point x="311" y="324" type="curve"/>
      <point x="408" y="324"/>
      <point x="481" y="270"/>
      <point x="481" y="198" type="curve"/>
      <point x="481" y="125"/>
      <point x="408" y="71"/>
    </contour>
  </outline>
</glyph>
<glyph name="less" format="2">
  <advance width="515"/>
  <unicode hex="003C"/>
  <outline>
    <contour>
      <point x="393" y="85" type="line"/>
      <point x="445" y="147" type="line"/>
      <point x="184" y="349" type="line"/>
      <point x="444" y="551" type="line"/>
      <point x="394" y="611" type="line"/>
      <point x="65" y="348" type="line"/>
    </contour>
  </outline>
</glyph>
<glyph name="at" format="2">
  <advance width="781"/>
  <unicode hex="0040"/>
  <outline>
    <contour>
      <point x="355" y="50" type="curve" smooth="yes"/>
      <point x="391" y="50"/>
      <point x="428" y="65"/>
      <point x="461" y="93" type="curve"/>
      <point x="479" y="67"/>
      <point x="512" y="52"/>
      <point x="557" y="52" type="curve" smooth="yes"/>
      <point x="662" y="52"/>
      <point x="739" y="145"/>
      <point x="739" y="272" type="curve"/>
      <point x="739" y="445"/>
      <point x="593" y="578"/>
      <point x="404" y="578" type="curve"/>
      <point x="197" y="578"/>
      <point x="43" y="419"/>
      <point x="43" y="207" type="curve"/>
      <point x="43" y="6"/>
      <point x="198" y="-144"/>
      <point x="406" y="-144" type="curve"/>
      <point x="473" y="-144"/>
      <point x="537" y="-129"/>
      <point x="597" y="-99" type="curve"/>
      <point x="576" y="-52" type="line"/>
      <point x="526" y="-78"/>
      <point x="469" y="-92"/>
      <point x="408" y="-92" type="curve"/>
      <point x="228" y="-92"/>
      <point x="99" y="35"/>
      <point x="99" y="211" type="curve"/>
      <point x="99" y="390"/>
      <point x="231" y="528"/>
      <point x="402" y="528" type="curve"/>
      <point x="562" y="528"/>
      <point x="683" y="417"/>
      <point x="683" y="269" type="curve"/>
      <point x="683" y="174"/>
      <point x="633" y="105"/>
      <point x="566" y="105" type="curve" smooth="yes"/>
      <point x="525" y="105"/>
      <point x="506" y="129"/>
      <point x="515" y="172" type="curve" smooth="yes"/>
      <point x="556" y="368" type="line"/>
      <point x="486" y="368" type="line"/>
      <point x="481" y="345" type="line"/>
      <point x="457" y="369"/>
      <point x="421" y="382"/>
      <point x="383" y="382" type="curve" smooth="yes"/>
      <point x="287" y="382"/>
      <point x="211" y="302"/>
      <point x="211" y="202" type="curve" smooth="yes"/>
      <point x="211" y="116"/>
      <point x="273" y="50"/>
    </contour>
    <contour>
      <point x="279" y="208" type="curve" smooth="yes"/>
      <point x="279" y="270"/>
      <point x="326" y="322"/>
      <point x="384" y="322" type="curve" smooth="yes"/>
      <point x="420" y="322"/>
      <point x="450" y="306"/>
      <point x="468" y="279" type="curve"/>
      <point x="448" y="180" type="line" smooth="yes"/>
      <point x="445" y="165"/>
      <point x="444" y="151"/>
      <point x="445" y="139" type="curve"/>
      <point x="424" y="119"/>
      <point x="398" y="108"/>
      <point x="371" y="108" type="curve" smooth="yes"/>
      <point x="317" y="108"/>
      <point x="279" y="149"/>
    </contour>
  </outline>
</glyph>
<glyph name="B" format="2">
  <advance width="671"/>
  <unicode hex="0042"/>
  <outline>
    <contour>
      <point x="71" y="700" type="line"/>
      <point x="71" y="0" type="line"/>
      <point x="387" y="0" type="line"/>
      <point x="533" y="0"/>
      <point x="628" y="79"/>
      <point x="628" y="199" type="curve" smooth="yes"/>
      <point x="628" y="275"/>
      <point x="581" y="334"/>
      <point x="504" y="364" type="curve"/>
      <point x="564" y="394"/>
      <point x="601" y="448"/>
      <point x="601" y="515" type="curve" smooth="yes"/>
      <point x="601" y="627"/>
      <point x="511" y="700"/>
      <point x="374" y="700" type="curve"/>
    </contour>
    <contour>
      <point x="368" y="611" type="line"/>
      <point x="447" y="611"/>
      <point x="497" y="571"/>
      <point x="497" y="507" type="curve" smooth="yes"/>
      <point x="497" y="443"/>
      <point x="447" y="403"/>
      <point x="368" y="403" type="curve"/>
      <point x="176" y="403" type="line"/>
      <point x="176" y="611" type="line"/>
    </contour>
    <contour>
      <point x="379" y="89" type="curve"/>
      <point x="176" y="89" type="line"/>
      <point x="176" y="319" type="line"/>
      <point x="379" y="319" type="line"/>
      <point x="466" y="319"/>
      <point x="522" y="273"/>
      <point x="522" y="204" type="curve" smooth="yes"/>
      <point x="522" y="134"/>
      <point x="466" y="89"/>
    </contour>
  </outline>
</glyph>
<glyph name="I" format="2">
  <advance width="248"/>
  <unicode hex="0049"/>
  <anchor x="124" y="700" name="top"/>
  <anchor x="176" y="0" name="bottom"/>
  <outline>
    <contour>
      <point x="71" y="0" type="line"/>
      <point x="176" y="0" type="line"/>
      <point x="176" y="700" type="line"/>
      <point x="71" y="700" type="line"/>
    </contour>
  </outline>
</glyph>
<glyph name="K" format="2">
  <advance width="650"/>
  <unicode hex="004B"/>
  <anchor x="342" y="0" name="bottom"/>
  <outline>
    <contour>
      <point x="71" y="0" type="line"/>
      <point x="176" y="0" type="line"/>
      <point x="176" y="333" type="line"/>
      <point x="515" y="0" type="line"/>
      <point x="659" y="0" type="line"/>
      <point x="286" y="362" type="line"/>
      <point x="647" y="700" type="line"/>
      <point x="515" y="700" type="line"/>
      <point x="176" y="374" type="line"/>
      <point x="176" y="700" type="line"/>
      <point x="71" y="700" type="line"/>
    </contour>
  </outline>
</glyph>
<glyph name="M" format="2">
  <advance width="861"/>
  <unicode hex="004D"/>
  <outline>
    <contour>
      <point x="430" y="50" type="line"/>
      <point x="691" y="571" type="line"/>
      <point x="691" y="0" type="line"/>
      <point x="790" y="0" type="line"/>
      <point x="790" y="700" type="line"/>
      <point x="650" y="700" type="line"/>
      <point x="431" y="253" type="line"/>
      <point x="211" y="700" type="line"/>
      <point x="71" y="700" type="line"/>
      <point x="71" y="0" type="line"/>
      <point x="169" y="0" type="line"/>
      <point x="169" y="570" type="line"/>
    </contour>
  </outline>
</glyph>
<glyph name="N" format="2">
  <advance width="735"/>
  <unicode hex="004E"/>
  <anchor x="367" y="700" name="top"/>
  <anchor x="367" y="0" name="bottom"/>
  <outline>
    <contour>
      <point x="71" y="700" type="line"/>
      <point x="71" y="0" type="line"/>
      <point x="170" y="0" type="line"/>
      <point x="170" y="536" type="line"/>
      <point x="571" y="0" type="line"/>
      <point x="663" y="0" type="line"/>
      <point x="663" y="700" type="line"/>
      <point x="564" y="700" type="line"/>
      <point x="564" y="181" type="line"/>
      <point x="174" y="700" type="line"/>
    </contour>
  </outline>
</glyph>
<glyph name="Q" format="2">
  <advance width="811"/>
  <unicode hex="0051"/>
  <outline>
    <contour>
      <point x="770" y="350" type="curve"/>
      <point x="770" y="552"/>
      <point x="609" y="711"/>
      <point x="405" y="711" type="curve"/>
      <point x="201" y="711"/>
      <point x="41" y="552"/>
      <point x="41" y="350" type="curve"/>
      <point x="41" y="148"/>
      <point x="201" y="-11"/>
      <point x="405" y="-11" type="curve"/>
      <point x="470" y="-11"/>
      <point x="531" y="5"/>
      <point x="584" y="34" type="curve"/>
      <point x="632" y="-24" type="line"/>
      <point x="730" y="0" type="line"/>
      <point x="658" y="88" type="line"/>
      <point x="727" y="153"/>
      <point x="770" y="246"/>
    </contour>
    <contour>
      <point x="527" y="247" type="line"/>
      <point x="429" y="223" type="line"/>
      <point x="520" y="112" type="line"/>
      <point x="486" y="95"/>
      <point x="447" y="86"/>
      <point x="405" y="86" type="curve"/>
      <point x="260" y="86"/>
      <point x="148" y="201"/>
      <point x="148" y="350" type="curve"/>
      <point x="148" y="500"/>
      <point x="260" y="614"/>
      <point x="405" y="614" type="curve"/>
      <point x="551" y="614"/>
      <point x="663" y="500"/>
      <point x="663" y="350" type="curve"/>
      <point x="663" y="278"/>
      <point x="637" y="214"/>
      <point x="593" y="167" type="curve"/>
    </contour>
  </outline>
</glyph>
<glyph name="R" format="2">
  <advance width="659"/>
  <unicode hex="0052"/>
  <anchor x="326" y="700" name="top"/>
  <anchor x="331" y="0" name="bottom"/>
  <outline>
    <contour>
      <point x="71" y="0" type="line"/>
      <point x="176" y="0" type="line"/>
      <point x="176" y="287" type="line"/>
      <point x="373" y="287" type="line"/>
      <point x="518" y="0" type="line"/>
      <point x="634" y="0" type="line"/>
      <point x="478" y="301" type="line"/>
      <point x="566" y="330"/>
      <point x="622" y="401"/>
      <point x="622" y="493" type="curve"/>
      <point x="622" y="616"/>
      <point x="528" y="700"/>
      <point x="389" y="700" type="curve"/>
      <point x="71" y="700" type="line"/>
    </contour>
    <contour>
      <point x="380" y="608" type="line"/>
      <point x="462" y="608"/>
      <point x="516" y="562"/>
      <point x="516" y="491" type="curve" smooth="yes"/>
      <point x="516" y="421"/>
      <point x="462" y="374"/>
      <point x="380" y="374" type="curve"/>
      <point x="176" y="374" type="line"/>
      <point x="176" y="608" type="line"/>
    </contour>
  </outline>
</glyph>
<glyph name="backslash" format="2">
  <advance width="485"/>
  <unicode hex="005C"/>
  <outline>
    <contour>
      <point x="553" y="-207" type="line"/>
      <point x="131" y="700" type="line"/>
      <point x="26" y="700" type="line"/>
      <point x="448" y="-207" type="line"/>
    </contour>
  </outline>
</glyph>
<glyph name="asciicircum" format="2">
  <advance width="543"/>
  <unicode hex="005E"/>
  <outline>
    <contour>
      <point x="43" y="350" type="line"/>
      <point x="129" y="350" type="line"/>
      <point x="272" y="619" type="line"/>
      <point x="414" y="350" type="line"/>
      <point x="501" y="350" type="line"/>
      <point x="315" y="700" type="line"/>
      <point x="228" y="700" type="line"/>
    </contour>
  </outline>
</glyph>
<glyph name="grave" format="2">
  <advance width="518"/>
  <unicode hex="0060"/>
  <anchor x="301" y="509" name="_top"/>
  <outline>
    <contour>
      <point x="271" y="725" type="line"/>
      <point x="149" y="725" type="line"/>
      <point x="277" y="603" type="line"/>
      <point x="361" y="603" type="line"/>
    </contour>
  </outline>
</glyph>
<glyph name="a" format="2">
  <advance width="532"/>
  <unicode hex="0061"/>
  <note>
Version created Mon Aug  6 16:22:34 2018
</note>
  <anchor x="257" y="509" name="top"/>
  <anchor x="476" y="0" name="bottom"/>
  <outline>
    <contour>
      <point x="220" y="-9" type="curve" smooth="yes"/>
      <point x="282" y="-9"/>
      <point x="333" y="8"/>
      <point x="378" y="44" type="curve"/>
      <point x="378" y="0" type="line"/>
      <point x="476" y="0" type="line"/>
      <point x="476" y="337" type="line"/>
      <point x="476" y="454"/>
      <point x="400" y="519"/>
      <point x="268" y="519" type="curve" smooth="yes"/>
      <point x="201" y="519"/>
      <point x="135" y="503"/>
      <point x="59" y="467" type="curve"/>
      <point x="96" y="392" type="line"/>
      <point x="159" y="422"/>
      <point x="207" y="435"/>
      <point x="254" y="435" type="curve" smooth="yes"/>
      <point x="335" y="435"/>
      <point x="378" y="399"/>
      <point x="378" y="327" type="curve"/>
      <point x="378" y="273" type="line"/>
      <point x="335" y="291"/>
      <point x="288" y="301"/>
      <point x="239" y="301" type="curve" smooth="yes"/>
      <point x="111" y="301"/>
      <point x="33" y="242"/>
      <point x="33" y="146" type="curve" smooth="yes"/>
      <point x="33" y="54"/>
      <point x="109" y="-9"/>
    </contour>
    <contour>
      <point x="129" y="148" type="curve" smooth="yes"/>
      <point x="129" y="199"/>
      <point x="174" y="232"/>
      <point x="247" y="232" type="curve" smooth="yes"/>
      <point x="298" y="232"/>
      <point x="339" y="222"/>
      <point x="378" y="201" type="curve"/>
      <point x="378" y="113" type="line"/>
      <point x="342" y="81"/>
      <point x="297" y="65"/>
      <point x="243" y="65" type="curve"/>
      <point x="175" y="65"/>
      <point x="129" y="99"/>
    </contour>
  </outline>
</glyph>
<glyph name="b" format="2">
  <advance width="607"/>
  <unicode hex="0062"/>
  <outline>
    <contour>
      <point x="571" y="255" type="curve" smooth="yes"/>
      <point x="571" y="402"/>
      <point x="458" y="517"/>
      <point x="314" y="517" type="curve"/>
      <point x="255" y="517"/>
      <point x="201" y="497"/>
      <point x="159" y="461" type="curve"/>
      <point x="159" y="722" type="line"/>
      <point x="59" y="700" type="line"/>
      <point x="59" y="0" type="line"/>
      <point x="158" y="0" type="line"/>
      <point x="158" y="43" type="line"/>
      <point x="202" y="10"/>
      <point x="255" y="-8"/>
      <point x="312" y="-8" type="curve"/>
      <point x="458" y="-8"/>
      <point x="571" y="107"/>
    </contour>
    <contour>
      <point x="301" y="430" type="curve"/>
      <point x="398" y="430"/>
      <point x="473" y="354"/>
      <point x="473" y="254" type="curve" smooth="yes"/>
      <point x="473" y="154"/>
      <point x="399" y="79"/>
      <point x="301" y="79" type="curve"/>
      <point x="244" y="79"/>
      <point x="191" y="102"/>
      <point x="159" y="139" type="curve"/>
      <point x="159" y="369" type="line"/>
      <point x="192" y="408"/>
      <point x="243" y="430"/>
    </contour>
  </outline>
</glyph>
<glyph name="e" format="2">
  <advance width="573"/>
  <unicode hex="0065"/>
  <anchor x="290" y="509" name="top"/>
  <anchor x="382" y="0" name="bottom"/>
  <outline>
    <contour>
      <point x="500" y="58" type="curve"/>
      <point x="436" y="121" type="line"/>
      <point x="404" y="93"/>
      <point x="357" y="76"/>
      <point x="307" y="76" type="curve"/>
      <point x="219" y="76"/>
      <point x="149" y="137"/>
      <point x="135" y="222" type="curve"/>
      <point x="537" y="222" type="line"/>
      <point x="537" y="251" type="line"/>
      <point x="537" y="401"/>
      <point x="431" y="517"/>
      <point x="291" y="517" type="curve"/>
      <point x="148" y="517"/>
      <point x="36" y="402"/>
      <point x="36" y="255" type="curve" smooth="yes"/>
      <point x="36" y="106"/>
      <point x="153" y="-9"/>
      <point x="303" y="-9" type="curve"/>
      <point x="379" y="-9"/>
      <point x="441" y="12"/>
    </contour>
    <contour>
      <point x="289" y="433" type="curve"/>
      <point x="363" y="433"/>
      <point x="423" y="375"/>
      <point x="438" y="297" type="curve"/>
      <point x="136" y="297" type="line"/>
      <point x="151" y="378"/>
      <point x="212" y="433"/>
    </contour>
  </outline>
</glyph>
<glyph name="f" format="2">
  <advance width="397"/>
  <unicode hex="0066"/>
  <outline>
    <contour>
      <point x="17" y="509" type="line"/>
      <point x="17" y="425" type="line"/>
      <point x="135" y="425" type="line"/>
      <point x="135" y="0" type="line"/>
      <point x="235" y="0" type="line"/>
      <point x="235" y="425" type="line"/>
      <point x="380" y="425" type="line"/>
      <point x="380" y="509" type="line"/>
      <point x="235" y="509" type="line"/>
      <point x="235" y="584" type="line" smooth="yes"/>
      <point x="235" y="638"/>
      <point x="262" y="663"/>
      <point x="317" y="663" type="curve" smooth="yes"/>
      <point x="340" y="663"/>
      <point x="356" y="661"/>
      <point x="380" y="654" type="curve"/>
      <point x="380" y="741" type="line"/>
      <point x="359" y="747"/>
      <point x="335" y="750"/>
      <point x="308" y="750" type="curve"/>
      <point x="196" y="750"/>
      <point x="135" y="692"/>
      <point x="135" y="586" type="curve" smooth="yes"/>
      <point x="135" y="509" type="line"/>
    </contour>
  </outline>
</glyph>
<glyph name="g" format="2">
  <advance width="603"/>
  <unicode hex="0067"/>
  <note>
Version created Sun Jan 13 16:53:00 2019
</note>
  <anchor x="300" y="509" name="top"/>
  <outline>
    <contour>
      <point x="292" y="-4" type="curve" smooth="yes"/>
      <point x="348" y="-4"/>
      <point x="401" y="15"/>
      <point x="444" y="50" type="curve"/>
      <point x="444" y="-7" type="line" smooth="yes"/>
      <point x="444" y="-87"/>
      <point x="397" y="-129"/>
      <point x="308" y="-129" type="curve" smooth="yes"/>
      <point x="254" y="-129"/>
      <point x="203" y="-115"/>
      <point x="145" y="-85" type="curve"/>
      <point x="106" y="-163" type="line"/>
      <point x="164" y="-195"/>
      <point x="237" y="-213"/>
      <point x="311" y="-213" type="curve"/>
      <point x="461" y="-213"/>
      <point x="544" y="-139"/>
      <point x="544" y="-7" type="curve" smooth="yes"/>
      <point x="544" y="509" type="line"/>
      <point x="445" y="509" type="line"/>
      <point x="445" y="467" type="line"/>
      <point x="401" y="500"/>
      <point x="349" y="518"/>
      <point x="294" y="518" type="curve" smooth="yes"/>
      <point x="149" y="518"/>
      <point x="36" y="403"/>
      <point x="36" y="257" type="curve" smooth="yes"/>
      <point x="36" y="111"/>
      <point x="149" y="-4"/>
    </contour>
    <contour>
      <point x="134" y="257" type="curve" smooth="yes"/>
      <point x="134" y="355"/>
      <point x="208" y="431"/>
      <point x="304" y="431" type="curve" smooth="yes"/>
      <point x="361" y="431"/>
      <point x="412" y="409"/>
      <point x="444" y="372" type="curve"/>
      <point x="444" y="142" type="line"/>
      <point x="411" y="104"/>
      <point x="362" y="83"/>
      <point x="304" y="83" type="curve" smooth="yes"/>
      <point x="208" y="83"/>
      <point x="134" y="159"/>
    </contour>
  </outline>
</glyph>
<glyph name="k" format="2">
  <advance width="524"/>
  <unicode hex="006B"/>
  <anchor x="264" y="0" name="bottom"/>
  <outline>
    <contour>
      <point x="59" y="0" type="line"/>
      <point x="159" y="0" type="line"/>
      <point x="159" y="240" type="line"/>
      <point x="405" y="0" type="line"/>
      <point x="537" y="0" type="line"/>
      <point x="261" y="270" type="line"/>
      <point x="523" y="509" type="line"/>
      <point x="406" y="509" type="line"/>
      <point x="159" y="285" type="line"/>
      <point x="159" y="722" type="line"/>
      <point x="59" y="700" type="line"/>
    </contour>
  </outline>
</glyph>
<glyph name="n" format="2">
  <advance width="567"/>
  <unicode hex="006E"/>
  <anchor x="286" y="509" name="top"/>
  <anchor x="286" y="0" name="bottom"/>
  <outline>
    <contour>
      <point x="59" y="0" type="line"/>
      <point x="159" y="0" type="line"/>
      <point x="159" y="366" type="line"/>
      <point x="187" y="409"/>
      <point x="231" y="432"/>
      <point x="285" y="432" type="curve" smooth="yes"/>
      <point x="362" y="432"/>
      <point x="411" y="383"/>
      <point x="411" y="303" type="curve"/>
      <point x="411" y="0" type="line"/>
      <point x="511" y="0" type="line"/>
      <point x="511" y="320" type="line" smooth="yes"/>
      <point x="511" y="438"/>
      <point x="429" y="519"/>
      <point x="312" y="519" type="curve"/>
      <point x="251" y="519"/>
      <point x="199" y="498"/>
      <point x="159" y="458" type="curve"/>
      <point x="159" y="509" type="line"/>
      <point x="59" y="509" type="line"/>
    </contour>
  </outline>
</glyph>
<glyph name="p" format="2">
  <advance width="607"/>
  <unicode hex="0070"/>
  <outline>
    <contour>
      <point x="59" y="-207" type="line"/>
      <point x="159" y="-207" type="line"/>
      <point x="159" y="42" type="line"/>
      <point x="202" y="10"/>
      <point x="256" y="-8"/>
      <point x="312" y="-8" type="curve"/>
      <point x="458" y="-8"/>
      <point x="571" y="107"/>
      <point x="571" y="255" type="curve" smooth="yes"/>
      <point x="571" y="402"/>
      <point x="458" y="517"/>
      <point x="314" y="517" type="curve"/>
      <point x="254" y="517"/>
      <point x="200" y="497"/>
      <point x="158" y="460" type="curve"/>
      <point x="158" y="509" type="line"/>
      <point x="59" y="509" type="line"/>
    </contour>
    <contour>
      <point x="301" y="430" type="curve"/>
      <point x="398" y="430"/>
      <point x="473" y="354"/>
      <point x="473" y="254" type="curve" smooth="yes"/>
      <point x="473" y="154"/>
      <point x="399" y="79"/>
      <point x="301" y="79" type="curve"/>
      <point x="244" y="79"/>
      <point x="191" y="102"/>
      <point x="159" y="139" type="curve"/>
      <point x="159" y="369" type="line"/>
      <point x="192" y="408"/>
      <point x="243" y="430"/>
    </contour>
  </outline>
</glyph>
<glyph name="q" format="2">
  <advance width="607"/>
  <unicode hex="0071"/>
  <outline>
    <contour>
      <point x="293" y="-8" type="curve"/>
      <point x="352" y="-8"/>
      <point x="405" y="11"/>
      <point x="448" y="47" type="curve"/>
      <point x="448" y="-207" type="line"/>
      <point x="548" y="-207" type="line"/>
      <point x="548" y="509" type="line"/>
      <point x="449" y="509" type="line"/>
      <point x="449" y="467" type="line"/>
      <point x="406" y="499"/>
      <point x="352" y="517"/>
      <point x="295" y="517" type="curve"/>
      <point x="149" y="517"/>
      <point x="36" y="402"/>
      <point x="36" y="255" type="curve" smooth="yes"/>
      <point x="36" y="107"/>
      <point x="149" y="-8"/>
    </contour>
    <contour>
      <point x="134" y="256" type="curve" smooth="yes"/>
      <point x="134" y="356"/>
      <point x="209" y="431"/>
      <point x="307" y="431" type="curve"/>
      <point x="363" y="431"/>
      <point x="415" y="409"/>
      <point x="448" y="371" type="curve"/>
      <point x="448" y="140" type="line"/>
      <point x="414" y="101"/>
      <point x="364" y="79"/>
      <point x="307" y="79" type="curve"/>
      <point x="209" y="79"/>
      <point x="134" y="156"/>
    </contour>
  </outline>
</glyph>
<glyph name="u" format="2">
  <advance width="567"/>
  <unicode hex="0075"/>
  <anchor x="284" y="509" name="top"/>
  <anchor x="509" y="0" name="bottom"/>
  <outline>
    <contour>
      <point x="157" y="509" type="line"/>
      <point x="57" y="509" type="line"/>
      <point x="57" y="190" type="line" smooth="yes"/>
      <point x="57" y="72"/>
      <point x="138" y="-10"/>
      <point x="255" y="-10" type="curve"/>
      <point x="317" y="-10"/>
      <point x="368" y="11"/>
      <point x="408" y="51" type="curve"/>
      <point x="408" y="0" type="line"/>
      <point x="508" y="0" type="line"/>
      <point x="508" y="509" type="line"/>
      <point x="408" y="509" type="line"/>
      <point x="408" y="144" type="line"/>
      <point x="380" y="101"/>
      <point x="337" y="77"/>
      <point x="283" y="77" type="curve" smooth="yes"/>
      <point x="206" y="77"/>
      <point x="157" y="127"/>
      <point x="157" y="207" type="curve"/>
    </contour>
  </outline>
</glyph>
<glyph name="v" format="2">
  <advance width="541"/>
  <unicode hex="0076"/>
  <outline>
    <contour>
      <point x="223" y="0" type="line"/>
      <point x="318" y="0" type="line"/>
      <point x="538" y="509" type="line"/>
      <point x="431" y="509" type="line"/>
      <point x="272" y="128" type="line"/>
      <point x="113" y="509" type="line"/>
      <point x="3" y="509" type="line"/>
    </contour>
  </outline>
</glyph>
<glyph name="y" format="2">
  <advance width="537"/>
  <unicode hex="0079"/>
  <anchor x="265" y="509" name="top"/>
  <outline>
    <contour>
      <point x="186" y="-48" type="line" smooth="yes"/>
      <point x="164" y="-99"/>
      <point x="131" y="-123"/>
      <point x="85" y="-123" type="curve"/>
      <point x="66" y="-123"/>
      <point x="54" y="-122"/>
      <point x="40" y="-119" type="curve"/>
      <point x="40" y="-207" type="line"/>
      <point x="53" y="-211"/>
      <point x="72" y="-213"/>
      <point x="93" y="-213" type="curve"/>
      <point x="187" y="-213"/>
      <point x="241" y="-170"/>
      <point x="288" y="-61" type="curve" smooth="yes"/>
      <point x="534" y="509" type="line"/>
      <point x="426" y="509" type="line"/>
      <point x="262" y="120" type="line"/>
      <point x="113" y="509" type="line"/>
      <point x="3" y="509" type="line"/>
      <point x="206" y="-2" type="line"/>
    </contour>
  </outline>
</glyph>
<glyph name="braceleft" format="2">
  <advance width="401"/>
  <unicode hex="007B"/>
  <outline>
    <contour>
      <point x="266" y="87" type="line" smooth="yes"/>
      <point x="294" y="161"/>
      <point x="256" y="227"/>
      <point x="178" y="247" type="curve"/>
      <point x="256" y="268"/>
      <point x="294" y="334"/>
      <point x="266" y="408" type="curve" smooth="yes"/>
      <point x="222" y="520" type="line" smooth="yes"/>
      <point x="197" y="584"/>
      <point x="222" y="631"/>
      <point x="282" y="632" type="curve" smooth="yes"/>
      <point x="304" y="632"/>
      <point x="322" y="628"/>
      <point x="345" y="621" type="curve"/>
      <point x="362" y="694" type="line"/>
      <point x="331" y="705"/>
      <point x="303" y="710"/>
      <point x="274" y="710" type="curve" smooth="yes"/>
      <point x="150" y="710"/>
      <point x="90" y="622"/>
      <point x="136" y="507" type="curve" smooth="yes"/>
      <point x="174" y="412" type="line" smooth="yes"/>
      <point x="203" y="342"/>
      <point x="173" y="287"/>
      <point x="104" y="287" type="curve" smooth="yes"/>
      <point x="23" y="287" type="line"/>
      <point x="23" y="209" type="line"/>
      <point x="104" y="209" type="line" smooth="yes"/>
      <point x="173" y="209"/>
      <point x="203" y="154"/>
      <point x="174" y="83" type="curve" smooth="yes"/>
      <point x="136" y="-12" type="line" smooth="yes"/>
      <point x="89" y="-126"/>
      <point x="150" y="-214"/>
      <point x="274" y="-214" type="curve" smooth="yes"/>
      <point x="303" y="-214"/>
      <point x="331" y="-210"/>
      <point x="362" y="-199" type="curve"/>
      <point x="345" y="-125" type="line"/>
      <point x="322" y="-133"/>
      <point x="304" y="-136"/>
      <point x="282" y="-136" type="curve" smooth="yes"/>
      <point x="222" y="-136"/>
      <point x="197" y="-88"/>
      <point x="222" y="-24" type="curve" smooth="yes"/>
    </contour>
  </outline>
</glyph>
<glyph name="asciitilde" format="2">
  <advance width="590"/>
  <unicode hex="007E"/>
  <outline>
    <contour>
      <point x="264" y="432" type="line" smooth="yes"/>
      <point x="228" y="451"/>
      <point x="198" y="459"/>
      <point x="170" y="459" type="curve" smooth="yes"/>
      <point x="96" y="459"/>
      <point x="47" y="403"/>
      <point x="35" y="303" type="curve"/>
      <point x="107" y="295" type="line"/>
      <point x="116" y="352"/>
      <point x="138" y="380"/>
      <point x="178" y="380" type="curve" smooth="yes"/>
      <point x="194" y="380"/>
      <point x="209" y="375"/>
      <point x="242" y="359" type="curve" smooth="yes"/>
      <point x="326" y="318" type="line" smooth="yes"/>
      <point x="362" y="300"/>
      <point x="392" y="292"/>
      <point x="420" y="292" type="curve" smooth="yes"/>
      <point x="494" y="292"/>
      <point x="543" y="348"/>
      <point x="555" y="447" type="curve"/>
      <point x="483" y="456" type="line"/>
      <point x="475" y="398"/>
      <point x="452" y="370"/>
      <point x="412" y="370" type="curve" smooth="yes"/>
      <point x="395" y="370"/>
      <point x="378" y="376"/>
      <point x="348" y="391" type="curve" smooth="yes"/>
    </contour>
  </outline>
</glyph>
<glyph name="cent" format="2">
  <advance width="522"/>
  <unicode hex="00A2"/>
  <outline>
    <contour>
      <point x="267" y="-110" type="line"/>
      <point x="322" y="-110" type="line"/>
      <point x="322" y="-8" type="line"/>
      <point x="389" y="-2"/>
      <point x="452" y="28"/>
      <point x="499" y="76" type="curve"/>
      <point x="439" y="141" type="line"/>
      <point x="403" y="105"/>
      <point x="365" y="85"/>
      <point x="322" y="80" type="curve"/>
      <point x="322" y="429" type="line"/>
      <point x="366" y="423"/>
      <point x="407" y="402"/>
      <point x="440" y="366" type="curve"/>
      <point x="503" y="434" type="line"/>
      <point x="456" y="482"/>
      <point x="390" y="512"/>
      <point x="322" y="518" type="curve"/>
      <point x="322" y="619" type="line"/>
      <point x="267" y="619" type="line"/>
      <point x="267" y="517" type="line"/>
      <point x="135" y="502"/>
      <point x="36" y="392"/>
      <point x="36" y="255" type="curve" smooth="yes"/>
      <point x="36" y="117"/>
      <point x="135" y="8"/>
      <point x="267" y="-7" type="curve"/>
    </contour>
    <contour>
      <point x="135" y="255" type="curve" smooth="yes"/>
      <point x="135" y="341"/>
      <point x="191" y="411"/>
      <point x="267" y="427" type="curve"/>
      <point x="267" y="83" type="line"/>
      <point x="190" y="99"/>
      <point x="135" y="168"/>
    </contour>
  </outline>
</glyph>
<glyph name="sterling" format="2">
  <advance width="629"/>
  <unicode hex="00A3"/>
  <anchor x="109" y="-11" name="top"/>
  <anchor x="334" y="-11" name="top"/>
  <anchor x="257" y="689" name="bottom"/>
  <outline>
    <contour>
      <point x="209" y="26" type="curve" smooth="yes"/>
      <point x="399" y="-15" type="line" smooth="yes"/>
      <point x="502" y="-38"/>
      <point x="571" y="-10"/>
      <point x="619" y="75" type="curve"/>
      <point x="545" y="120" type="line"/>
      <point x="517" y="67"/>
      <point x="478" y="51"/>
      <point x="414" y="65" type="curve" smooth="yes"/>
      <point x="229" y="105" type="line"/>
      <point x="253" y="131"/>
      <point x="261" y="172"/>
      <point x="252" y="221" type="curve" smooth="yes"/>
      <point x="237" y="301" type="line"/>
      <point x="425" y="301" type="line"/>
      <point x="425" y="371" type="line"/>
      <point x="224" y="371" type="line"/>
      <point x="211" y="443" type="line" smooth="yes"/>
      <point x="191" y="558"/>
      <point x="239" y="626"/>
      <point x="341" y="626" type="curve"/>
      <point x="418" y="626"/>
      <point x="469" y="584"/>
      <point x="490" y="506" type="curve"/>
      <point x="575" y="532" type="line"/>
      <point x="544" y="649"/>
      <point x="463" y="709"/>
      <point x="338" y="709" type="curve"/>
      <point x="178" y="709"/>
      <point x="88" y="595"/>
      <point x="119" y="428" type="curve" smooth="yes"/>
      <point x="129" y="371" type="line"/>
      <point x="40" y="371" type="line"/>
      <point x="40" y="301" type="line"/>
      <point x="142" y="301" type="line"/>
      <point x="162" y="191" type="line" smooth="yes"/>
      <point x="169" y="155"/>
      <point x="161" y="128"/>
      <point x="141" y="112" type="curve"/>
      <point x="80" y="106"/>
      <point x="35" y="74"/>
      <point x="0" y="11" type="curve"/>
      <point x="75" y="-36" type="line"/>
      <point x="104" y="22"/>
      <point x="142" y="41"/>
    </contour>
  </outline>
</glyph>
<glyph name="yen" format="2">
  <advance width="669"/>
  <unicode hex="00A5"/>
  <outline>
    <contour>
      <point x="99" y="212" type="line"/>
      <point x="99" y="152" type="line"/>
      <point x="281" y="152" type="line"/>
      <point x="281" y="0" type="line"/>
      <point x="386" y="0" type="line"/>
      <point x="386" y="152" type="line"/>
      <point x="570" y="152" type="line"/>
      <point x="570" y="212" type="line"/>
      <point x="386" y="212" type="line"/>
      <point x="386" y="277" type="line"/>
      <point x="389" y="282" type="line"/>
      <point x="570" y="282" type="line"/>
      <point x="570" y="342" type="line"/>
      <point x="429" y="342" type="line"/>
      <point x="668" y="700" type="line"/>
      <point x="552" y="700" type="line"/>
      <point x="336" y="370" type="line"/>
      <point x="121" y="700" type="line"/>
      <point x="-1" y="700" type="line"/>
      <point x="237" y="342" type="line"/>
      <point x="99" y="342" type="line"/>
      <point x="99" y="282" type="line"/>
      <point x="277" y="282" type="line"/>
      <point x="281" y="276" type="line"/>
      <point x="281" y="212" type="line"/>
    </contour>
  </outline>
</glyph>
<glyph name="uni00A6" format="2">
  <advance width="295"/>
  <unicode hex="00A6"/>
  <outline>
    <contour>
      <point x="194" y="286" type="line"/>
      <point x="194" y="700" type="line"/>
      <point x="101" y="700" type="line"/>
      <point x="101" y="286" type="line"/>
    </contour>
    <contour>
      <point x="101" y="-208" type="line"/>
      <point x="194" y="-208" type="line"/>
      <point x="194" y="206" type="line"/>
      <point x="101" y="206" type="line"/>
    </contour>
  </outline>
</glyph>
<glyph name="section" format="2">
  <advance width="571"/>
  <unicode hex="00A7"/>
  <outline>
    <contour>
      <point x="463" y="92" type="curve" smooth="yes"/>
      <point x="463" y="131"/>
      <point x="450" y="162"/>
      <point x="421" y="187" type="curve"/>
      <point x="484" y="209"/>
      <point x="521" y="255"/>
      <point x="521" y="317" type="curve" smooth="yes"/>
      <point x="521" y="391"/>
      <point x="482" y="430"/>
      <point x="376" y="465" type="curve" smooth="yes"/>
      <point x="268" y="500" type="line" smooth="yes"/>
      <point x="220" y="516"/>
      <point x="199" y="538"/>
      <point x="199" y="572" type="curve" smooth="yes"/>
      <point x="199" y="615"/>
      <point x="233" y="641"/>
      <point x="291" y="641" type="curve" smooth="yes"/>
      <point x="334" y="641"/>
      <point x="385" y="625"/>
      <point x="441" y="593" type="curve"/>
      <point x="480" y="658" type="line"/>
      <point x="419" y="692"/>
      <point x="353" y="710"/>
      <point x="292" y="710" type="curve" smooth="yes"/>
      <point x="181" y="710"/>
      <point x="108" y="652"/>
      <point x="108" y="565" type="curve" smooth="yes"/>
      <point x="108" y="526"/>
      <point x="122" y="495"/>
      <point x="151" y="470" type="curve"/>
      <point x="88" y="449"/>
      <point x="50" y="403"/>
      <point x="50" y="341" type="curve" smooth="yes"/>
      <point x="50" y="267"/>
      <point x="88" y="228"/>
      <point x="195" y="193" type="curve" smooth="yes"/>
      <point x="303" y="158" type="line" smooth="yes"/>
      <point x="352" y="142"/>
      <point x="372" y="120"/>
      <point x="372" y="86" type="curve" smooth="yes"/>
      <point x="372" y="44"/>
      <point x="337" y="17"/>
      <point x="280" y="17" type="curve" smooth="yes"/>
      <point x="237" y="17"/>
      <point x="187" y="33"/>
      <point x="130" y="65" type="curve"/>
      <point x="91" y="0" type="line"/>
      <point x="150" y="-33"/>
      <point x="216" y="-52"/>
      <point x="280" y="-52" type="curve" smooth="yes"/>
      <point x="390" y="-52"/>
      <point x="463" y="6"/>
    </contour>
    <contour>
      <point x="333" y="232" type="curve" smooth="yes"/>
      <point x="217" y="270" type="line" smooth="yes"/>
      <point x="159" y="289"/>
      <point x="135" y="313"/>
      <point x="135" y="350" type="curve" smooth="yes"/>
      <point x="135" y="393"/>
      <point x="169" y="424"/>
      <point x="224" y="431" type="curve"/>
      <point x="229" y="429"/>
      <point x="233" y="427"/>
      <point x="238" y="426" type="curve" smooth="yes"/>
      <point x="354" y="388" type="line" smooth="yes"/>
      <point x="411" y="369"/>
      <point x="436" y="345"/>
      <point x="436" y="307" type="curve" smooth="yes"/>
      <point x="436" y="264"/>
      <point x="401" y="234"/>
      <point x="347" y="227" type="curve"/>
      <point x="342" y="229"/>
      <point x="338" y="231"/>
    </contour>
  </outline>
</glyph>
<glyph name="dieresis" format="2">
  <advance width="559"/>
  <unicode hex="00A8"/>
  <anchor x="279" y="509" name="_top"/>
  <outline>
    <contour>
      <point x="183" y="608" type="curve" smooth="yes"/>
      <point x="217" y="608"/>
      <point x="243" y="633"/>
      <point x="243" y="666" type="curve" smooth="yes"/>
      <point x="243" y="699"/>
      <point x="217" y="724"/>
      <point x="183" y="724" type="curve" smooth="yes"/>
      <point x="149" y="724"/>
      <point x="123" y="699"/>
      <point x="123" y="666" type="curve" smooth="yes"/>
      <point x="123" y="633"/>
      <point x="149" y="608"/>
    </contour>
    <contour>
      <point x="376" y="608" type="curve" smooth="yes"/>
      <point x="410" y="608"/>
      <point x="436" y="633"/>
      <point x="436" y="666" type="curve" smooth="yes"/>
      <point x="436" y="699"/>
      <point x="411" y="724"/>
      <point x="376" y="724" type="curve" smooth="yes"/>
      <point x="342" y="724"/>
      <point x="316" y="699"/>
      <point x="316" y="666" type="curve" smooth="yes"/>
      <point x="316" y="633"/>
      <point x="342" y="608"/>
    </contour>
  </outline>
</glyph>
<glyph name="copyright" format="2">
  <advance width="798"/>
  <unicode hex="00A9"/>
  <outline>
    <contour>
      <point x="41" y="350" type="curve" smooth="yes"/>
      <point x="41" y="147"/>
      <point x="197" y="-11"/>
      <point x="399" y="-11" type="curve"/>
      <point x="600" y="-11"/>
      <point x="757" y="147"/>
      <point x="757" y="350" type="curve" smooth="yes"/>
      <point x="757" y="553"/>
      <point x="600" y="711"/>
      <point x="399" y="711" type="curve"/>
      <point x="197" y="711"/>
      <point x="41" y="553"/>
    </contour>
    <contour>
      <point x="703" y="350" type="curve"/>
      <point x="703" y="177"/>
      <point x="568" y="39"/>
      <point x="399" y="39" type="curve"/>
      <point x="230" y="39"/>
      <point x="96" y="177"/>
      <point x="96" y="350" type="curve"/>
      <point x="96" y="523"/>
      <point x="230" y="661"/>
      <point x="399" y="661" type="curve"/>
      <point x="568" y="661"/>
      <point x="703" y="523"/>
    </contour>
    <contour>
      <point x="223" y="350" type="curve" smooth="yes"/>
      <point x="223" y="246"/>
      <point x="304" y="164"/>
      <point x="409" y="164" type="curve" smooth="yes"/>
      <point x="463" y="164"/>
      <point x="513" y="186"/>
      <point x="551" y="225" type="curve"/>
      <point x="506" y="273" type="line"/>
      <point x="478" y="244"/>
      <point x="447" y="230"/>
      <point x="411" y="230" type="curve" smooth="yes"/>
      <point x="346" y="230"/>
      <point x="297" y="282"/>
      <point x="297" y="350" type="curve" smooth="yes"/>
      <point x="297" y="419"/>
      <point x="346" y="472"/>
      <point x="410" y="472" type="curve" smooth="yes"/>
      <point x="446" y="472"/>
      <point x="480" y="457"/>
      <point x="507" y="427" type="curve"/>
      <point x="553" y="476" type="line"/>
      <point x="517" y="515"/>
      <point x="464" y="537"/>
      <point x="409" y="537" type="curve"/>
      <point x="304" y="537"/>
      <point x="223" y="455"/>
    </contour>
  </outline>
</glyph>
<glyph name="uni00AC" format="2">
  <advance width="552"/>
  <unicode hex="00AC"/>
  <outline>
    <contour>
      <point x="46" y="326" type="line"/>
      <point x="46" y="239" type="line"/>
      <point x="412" y="239" type="line"/>
      <point x="412" y="0" type="line"/>
      <point x="506" y="0" type="line"/>
      <point x="506" y="326" type="line"/>
    </contour>
  </outline>
</glyph>
<glyph name="registered" format="2">
  <advance width="488"/>
  <unicode hex="00AE"/>
  <outline>
    <contour>
      <point x="244" y="309" type="curve" smooth="yes"/>
      <point x="356" y="309"/>
      <point x="446" y="399"/>
      <point x="446" y="512" type="curve" smooth="yes"/>
      <point x="446" y="626"/>
      <point x="356" y="716"/>
      <point x="244" y="716" type="curve" smooth="yes"/>
      <point x="131" y="716"/>
      <point x="42" y="627"/>
      <point x="42" y="512" type="curve" smooth="yes"/>
      <point x="42" y="398"/>
      <point x="131" y="309"/>
    </contour>
    <contour>
      <point x="243" y="347" type="curve" smooth="yes"/>
      <point x="151" y="347"/>
      <point x="84" y="418"/>
      <point x="84" y="512" type="curve"/>
      <point x="84" y="608"/>
      <point x="151" y="677"/>
      <point x="243" y="677" type="curve" smooth="yes"/>
      <point x="337" y="677"/>
      <point x="404" y="608"/>
      <point x="404" y="512" type="curve" smooth="yes"/>
      <point x="404" y="417"/>
      <point x="337" y="347"/>
    </contour>
    <contour>
      <point x="175" y="419" type="line"/>
      <point x="214" y="419" type="line"/>
      <point x="214" y="488" type="line"/>
      <point x="246" y="488" type="line"/>
      <point x="286" y="419" type="line"/>
      <point x="329" y="419" type="line"/>
      <point x="283" y="497" type="line"/>
      <point x="304" y="507"/>
      <point x="318" y="527"/>
      <point x="318" y="549" type="curve" smooth="yes"/>
      <point x="318" y="585"/>
      <point x="294" y="607"/>
      <point x="254" y="607" type="curve" smooth="yes"/>
      <point x="175" y="607" type="line"/>
    </contour>
    <contour>
      <point x="247" y="576" type="line" smooth="yes"/>
      <point x="268" y="576"/>
      <point x="278" y="566"/>
      <point x="278" y="547" type="curve" smooth="yes"/>
      <point x="278" y="529"/>
      <point x="266" y="518"/>
      <point x="247" y="518" type="curve" smooth="yes"/>
      <point x="214" y="518" type="line"/>
      <point x="214" y="576" type="line"/>
    </contour>
  </outline>
</glyph>
<glyph name="macron" format="2">
  <advance width="518"/>
  <unicode hex="00AF"/>
  <anchor x="259" y="509" name="_top"/>
  <outline>
    <contour>
      <point x="412" y="690" type="line"/>
      <point x="114" y="690" type="line"/>
      <point x="114" y="622" type="line"/>
      <point x="412" y="622" type="line"/>
    </contour>
  </outline>
</glyph>
<glyph name="degree" format="2">
  <advance width="383"/>
  <unicode hex="00B0"/>
  <outline>
    <contour>
      <point x="192" y="422" type="curve" smooth="yes"/>
      <point x="271" y="422"/>
      <point x="335" y="487"/>
      <point x="335" y="568" type="curve" smooth="yes"/>
      <point x="335" y="646"/>
      <point x="270" y="710"/>
      <point x="192" y="710" type="curve" smooth="yes"/>
      <point x="111" y="710"/>
      <point x="47" y="646"/>
      <point x="47" y="568" type="curve" smooth="yes"/>
      <point x="47" y="486"/>
      <point x="111" y="422"/>
    </contour>
    <contour>
      <point x="192" y="481" type="curve" smooth="yes"/>
      <point x="145" y="481"/>
      <point x="108" y="520"/>
      <point x="108" y="568" type="curve"/>
      <point x="108" y="614"/>
      <point x="146" y="651"/>
      <point x="192" y="651" type="curve" smooth="yes"/>
      <point x="236" y="651"/>
      <point x="274" y="613"/>
      <point x="274" y="568" type="curve" smooth="yes"/>
      <point x="274" y="520"/>
      <point x="237" y="481"/>
    </contour>
  </outline>
</glyph>
<glyph name="plusminus" format="2">
  <advance width="535"/>
  <unicode hex="00B1"/>
  <outline>
    <contour>
      <point x="308" y="183" type="line"/>
      <point x="308" y="352" type="line"/>
      <point x="484" y="352" type="line"/>
      <point x="484" y="432" type="line"/>
      <point x="308" y="432" type="line"/>
      <point x="308" y="598" type="line"/>
      <point x="227" y="598" type="line"/>
      <point x="227" y="432" type="line"/>
      <point x="51" y="432" type="line"/>
      <point x="51" y="352" type="line"/>
      <point x="227" y="352" type="line"/>
      <point x="227" y="183" type="line"/>
    </contour>
    <contour>
      <point x="484" y="79" type="line"/>
      <point x="51" y="79" type="line"/>
      <point x="51" y="-1" type="line"/>
      <point x="484" y="-1" type="line"/>
    </contour>
  </outline>
</glyph>
<glyph name="uni00B5" format="2">
  <advance width="567"/>
  <unicode hex="00B5"/>
  <outline>
    <contour>
      <point x="156" y="509" type="line"/>
      <point x="57" y="509" type="line"/>
      <point x="57" y="-207" type="line"/>
      <point x="156" y="-207" type="line"/>
      <point x="156" y="18" type="line"/>
      <point x="183" y="0"/>
      <point x="217" y="-10"/>
      <point x="256" y="-10" type="curve"/>
      <point x="317" y="-10"/>
      <point x="369" y="11"/>
      <point x="408" y="52" type="curve"/>
      <point x="408" y="0" type="line"/>
      <point x="508" y="0" type="line"/>
      <point x="508" y="509" type="line"/>
      <point x="408" y="509" type="line"/>
      <point x="408" y="144" type="line"/>
      <point x="381" y="101"/>
      <point x="337" y="77"/>
      <point x="283" y="77" type="curve" smooth="yes"/>
      <point x="205" y="77"/>
      <point x="156" y="127"/>
      <point x="156" y="207" type="curve"/>
    </contour>
  </outline>
</glyph>
<glyph name="cedilla" format="2">
  <advance width="518"/>
  <unicode hex="00B8"/>
  <anchor x="291" y="0" name="_bottom"/>
  <outline>
    <contour>
      <point x="397" y="-136" type="curve"/>
      <point x="397" y="-87"/>
      <point x="360" y="-55"/>
      <point x="302" y="-51" type="curve"/>
      <point x="317" y="0" type="line"/>
      <point x="264" y="0" type="line"/>
      <point x="237" y="-93" type="line"/>
      <point x="271" y="-93" type="line" smooth="yes"/>
      <point x="310" y="-93"/>
      <point x="334" y="-110"/>
      <point x="334" y="-136" type="curve"/>
      <point x="334" y="-163"/>
      <point x="312" y="-181"/>
      <point x="274" y="-181" type="curve"/>
      <point x="245" y="-181"/>
      <point x="218" y="-170"/>
      <point x="193" y="-150" type="curve"/>
      <point x="157" y="-189" type="line"/>
      <point x="188" y="-217"/>
      <point x="229" y="-231"/>
      <point x="275" y="-231" type="curve"/>
      <point x="346" y="-231"/>
      <point x="397" y="-191"/>
    </contour>
  </outline>
</glyph>
<glyph name="multiply" format="2">
  <advance width="543"/>
  <unicode hex="00D7"/>
  <outline>
    <contour>
      <point x="118" y="154" type="line"/>
      <point x="271" y="309" type="line"/>
      <point x="424" y="153" type="line"/>
      <point x="475" y="204" type="line"/>
      <point x="321" y="360" type="line"/>
      <point x="474" y="515" type="line"/>
      <point x="425" y="565" type="line"/>
      <point x="272" y="410" type="line"/>
      <point x="119" y="565" type="line"/>
      <point x="68" y="514" type="line"/>
      <point x="221" y="359" type="line"/>
      <point x="68" y="204" type="line"/>
    </contour>
  </outline>
</glyph>
<glyph name="Oslash" format="2">
  <advance width="811"/>
  <unicode hex="00D8"/>
  <outline>
    <contour>
      <point x="162" y="0" type="line"/>
      <point x="202" y="49" type="line"/>
      <point x="260" y="11"/>
      <point x="329" y="-11"/>
      <point x="405" y="-11" type="curve"/>
      <point x="609" y="-11"/>
      <point x="770" y="148"/>
      <point x="770" y="350" type="curve"/>
      <point x="770" y="451"/>
      <point x="730" y="541"/>
      <point x="664" y="606" type="curve"/>
      <point x="742" y="700" type="line"/>
      <point x="641" y="700" type="line"/>
      <point x="603" y="654" type="line"/>
      <point x="546" y="690"/>
      <point x="479" y="711"/>
      <point x="405" y="711" type="curve"/>
      <point x="201" y="711"/>
      <point x="41" y="552"/>
      <point x="41" y="350" type="curve"/>
      <point x="41" y="251"/>
      <point x="79" y="162"/>
      <point x="143" y="98" type="curve"/>
      <point x="62" y="0" type="line"/>
    </contour>
    <contour>
      <point x="148" y="350" type="curve"/>
      <point x="148" y="500"/>
      <point x="260" y="614"/>
      <point x="405" y="614" type="curve"/>
      <point x="455" y="614"/>
      <point x="501" y="601"/>
      <point x="539" y="577" type="curve"/>
      <point x="209" y="177" type="line"/>
      <point x="171" y="223"/>
      <point x="148" y="283"/>
    </contour>
    <contour>
      <point x="663" y="350" type="curve"/>
      <point x="663" y="201"/>
      <point x="551" y="86"/>
      <point x="405" y="86" type="curve"/>
      <point x="353" y="86"/>
      <point x="306" y="101"/>
      <point x="266" y="126" type="curve"/>
      <point x="599" y="527" type="line"/>
      <point x="639" y="481"/>
      <point x="663" y="419"/>
    </contour>
  </outline>
</glyph>
<glyph name="germandbls" format="2">
  <advance width="652"/>
  <unicode hex="00DF"/>
  <outline>
    <contour>
      <point x="372" y="365" type="curve" smooth="yes"/>
      <point x="372" y="432"/>
      <point x="557" y="435"/>
      <point x="557" y="574" type="curve"/>
      <point x="557" y="671"/>
      <point x="462" y="735"/>
      <point x="316" y="735" type="curve"/>
      <point x="155" y="735"/>
      <point x="59" y="640"/>
      <point x="59" y="478" type="curve" smooth="yes"/>
      <point x="59" y="0" type="line"/>
      <point x="158" y="0" type="line"/>
      <point x="158" y="478" type="line" smooth="yes"/>
      <point x="158" y="592"/>
      <point x="214" y="653"/>
      <point x="318" y="653" type="curve"/>
      <point x="400" y="653"/>
      <point x="459" y="616"/>
      <point x="459" y="563" type="curve"/>
      <point x="459" y="468"/>
      <point x="275" y="472"/>
      <point x="275" y="352" type="curve" smooth="yes"/>
      <point x="275" y="302"/>
      <point x="306" y="271"/>
      <point x="384" y="245" type="curve" smooth="yes"/>
      <point x="467" y="218" type="line" smooth="yes"/>
      <point x="522" y="199"/>
      <point x="542" y="178"/>
      <point x="542" y="138" type="curve" smooth="yes"/>
      <point x="542" y="91"/>
      <point x="502" y="61"/>
      <point x="440" y="61" type="curve" smooth="yes"/>
      <point x="387" y="61"/>
      <point x="340" y="82"/>
      <point x="295" y="126" type="curve"/>
      <point x="240" y="70" type="line"/>
      <point x="297" y="16"/>
      <point x="363" y="-11"/>
      <point x="443" y="-11" type="curve" smooth="yes"/>
      <point x="558" y="-11"/>
      <point x="634" y="52"/>
      <point x="634" y="146" type="curve" smooth="yes"/>
      <point x="634" y="215"/>
      <point x="598" y="256"/>
      <point x="510" y="287" type="curve" smooth="yes"/>
      <point x="431" y="314" type="line" smooth="yes"/>
      <point x="384" y="331"/>
      <point x="372" y="342"/>
    </contour>
  </outline>
</glyph>
<glyph name="ae" format="2">
  <advance width="915"/>
  <unicode hex="00E6"/>
  <anchor x="257" y="509" name="top"/>
  <anchor x="476" y="0" name="bottom"/>
  <outline>
    <contour>
      <point x="220" y="-9" type="curve" smooth="yes"/>
      <point x="308" y="-9"/>
      <point x="378" y="22"/>
      <point x="437" y="87" type="curve"/>
      <point x="486" y="28"/>
      <point x="560" y="-9"/>
      <point x="645" y="-9" type="curve"/>
      <point x="721" y="-9"/>
      <point x="782" y="12"/>
      <point x="842" y="58" type="curve"/>
      <point x="778" y="121" type="line"/>
      <point x="746" y="93"/>
      <point x="699" y="76"/>
      <point x="649" y="76" type="curve"/>
      <point x="561" y="76"/>
      <point x="491" y="137"/>
      <point x="477" y="222" type="curve"/>
      <point x="879" y="222" type="line"/>
      <point x="879" y="251" type="line"/>
      <point x="879" y="401"/>
      <point x="773" y="517"/>
      <point x="633" y="517" type="curve"/>
      <point x="560" y="517"/>
      <point x="496" y="487"/>
      <point x="451" y="435" type="curve"/>
      <point x="419" y="490"/>
      <point x="356" y="519"/>
      <point x="268" y="519" type="curve" smooth="yes"/>
      <point x="201" y="519"/>
      <point x="135" y="503"/>
      <point x="59" y="467" type="curve"/>
      <point x="96" y="392" type="line"/>
      <point x="159" y="422"/>
      <point x="207" y="435"/>
      <point x="254" y="435" type="curve" smooth="yes"/>
      <point x="335" y="435"/>
      <point x="378" y="399"/>
      <point x="378" y="327" type="curve"/>
      <point x="378" y="274" type="line"/>
      <point x="337" y="292"/>
      <point x="290" y="301"/>
      <point x="241" y="301" type="curve" smooth="yes"/>
      <point x="114" y="301"/>
      <point x="35" y="241"/>
      <point x="35" y="146" type="curve" smooth="yes"/>
      <point x="35" y="54"/>
      <point x="111" y="-9"/>
    </contour>
    <contour>
      <point x="631" y="433" type="curve"/>
      <point x="705" y="433"/>
      <point x="765" y="375"/>
      <point x="780" y="297" type="curve"/>
      <point x="478" y="297" type="line"/>
      <point x="493" y="378"/>
      <point x="553" y="433"/>
    </contour>
    <contour>
      <point x="131" y="148" type="curve" smooth="yes"/>
      <point x="131" y="199"/>
      <point x="177" y="232"/>
      <point x="249" y="232" type="curve" smooth="yes"/>
      <point x="301" y="232"/>
      <point x="345" y="222"/>
      <point x="384" y="199" type="curve"/>
      <point x="388" y="179"/>
      <point x="394" y="159"/>
      <point x="403" y="141" type="curve"/>
      <point x="357" y="91"/>
      <point x="304" y="65"/>
      <point x="243" y="65" type="curve" smooth="yes"/>
      <point x="176" y="65"/>
      <point x="131" y="99"/>
    </contour>
  </outline>
</glyph>
<glyph name="ccedilla" format="2">
  <advance width="521"/>
  <unicode hex="00E7"/>
  <outline>
    <contour>
      <point x="302" y="79" type="curve" smooth="yes"/>
      <point x="208" y="79"/>
      <point x="135" y="155"/>
      <point x="135" y="255" type="curve" smooth="yes"/>
      <point x="135" y="353"/>
      <point x="207" y="430"/>
      <point x="300" y="430" type="curve" smooth="yes"/>
      <point x="352" y="430"/>
      <point x="401" y="408"/>
      <point x="440" y="366" type="curve"/>
      <point x="503" y="434" type="line"/>
      <point x="450" y="488"/>
      <point x="375" y="519"/>
      <point x="298" y="519" type="curve"/>
      <point x="151" y="519"/>
      <point x="36" y="403"/>
      <point x="36" y="255" type="curve" smooth="yes"/>
      <point x="36" y="116"/>
      <point x="137" y="6"/>
      <point x="270" y="-8" type="curve"/>
      <point x="245" y="-93" type="line"/>
      <point x="279" y="-93" type="line" smooth="yes"/>
      <point x="318" y="-93"/>
      <point x="342" y="-110"/>
      <point x="342" y="-136" type="curve"/>
      <point x="342" y="-163"/>
      <point x="320" y="-181"/>
      <point x="282" y="-181" type="curve"/>
      <point x="253" y="-181"/>
      <point x="226" y="-170"/>
      <point x="201" y="-150" type="curve"/>
      <point x="165" y="-189" type="line"/>
      <point x="196" y="-217"/>
      <point x="237" y="-231"/>
      <point x="283" y="-231" type="curve"/>
      <point x="354" y="-231"/>
      <point x="405" y="-191"/>
      <point x="405" y="-136" type="curve"/>
      <point x="405" y="-87"/>
      <point x="368" y="-55"/>
      <point x="310" y="-51" type="curve"/>
      <point x="323" y="-8" type="line"/>
      <point x="390" y="-2"/>
      <point x="452" y="28"/>
      <point x="499" y="76" type="curve"/>
      <point x="439" y="141" type="line"/>
      <point x="398" y="99"/>
      <point x="353" y="79"/>
    </contour>
  </outline>
</glyph>
<glyph name="eth" format="2">
  <advance width="599"/>
  <unicode hex="00F0"/>
  <outline>
    <contour>
      <point x="255" y="522" type="line"/>
      <point x="351" y="582" type="line"/>
      <point x="401" y="533"/>
      <point x="435" y="471"/>
      <point x="448" y="402" type="curve"/>
      <point x="412" y="455"/>
      <point x="352" y="487"/>
      <point x="279" y="487" type="curve" smooth="yes"/>
      <point x="145" y="487"/>
      <point x="37" y="379"/>
      <point x="37" y="246" type="curve" smooth="yes"/>
      <point x="37" y="102"/>
      <point x="147" y="-10"/>
      <point x="289" y="-10" type="curve" smooth="yes"/>
      <point x="450" y="-10"/>
      <point x="554" y="112"/>
      <point x="554" y="300" type="curve"/>
      <point x="554" y="435"/>
      <point x="510" y="548"/>
      <point x="427" y="630" type="curve"/>
      <point x="517" y="687" type="line"/>
      <point x="478" y="743" type="line"/>
      <point x="373" y="677" type="line"/>
      <point x="335" y="704"/>
      <point x="293" y="726"/>
      <point x="245" y="743" type="curve"/>
      <point x="198" y="673" type="line"/>
      <point x="233" y="662"/>
      <point x="265" y="647"/>
      <point x="295" y="628" type="curve"/>
      <point x="216" y="578" type="line"/>
    </contour>
    <contour>
      <point x="292" y="79" type="curve" smooth="yes"/>
      <point x="203" y="79"/>
      <point x="133" y="150"/>
      <point x="133" y="242" type="curve" smooth="yes"/>
      <point x="133" y="332"/>
      <point x="203" y="403"/>
      <point x="292" y="403" type="curve" smooth="yes"/>
      <point x="380" y="403"/>
      <point x="450" y="332"/>
      <point x="450" y="242" type="curve" smooth="yes"/>
      <point x="450" y="150"/>
      <point x="380" y="79"/>
    </contour>
  </outline>
</glyph>
<glyph name="Aogonek" format="2">
  <advance width="701"/>
  <unicode hex="0104"/>
  <outline>
    <contour>
      <point x="1" y="0" type="line"/>
      <point x="110" y="0" type="line"/>
      <point x="192" y="205" type="line"/>
      <point x="505" y="205" type="line"/>
      <point x="586" y="0" type="line"/>
      <point x="635" y="0" type="line"/>
      <point x="567" y="-45"/>
      <point x="538" y="-85"/>
      <point x="538" y="-133" type="curve"/>
      <point x="538" y="-186"/>
      <point x="579" y="-221"/>
      <point x="640" y="-221" type="curve"/>
      <point x="668" y="-221"/>
      <point x="695" y="-213"/>
      <point x="717" y="-200" type="curve"/>
      <point x="701" y="-151" type="line"/>
      <point x="688" y="-160"/>
      <point x="672" y="-165"/>
      <point x="656" y="-165" type="curve"/>
      <point x="622" y="-165"/>
      <point x="601" y="-146"/>
      <point x="601" y="-115" type="curve"/>
      <point x="601" y="-78"/>
      <point x="632" y="-42"/>
      <point x="701" y="0" type="curve"/>
      <point x="700" y="1" type="line"/>
      <point x="414" y="700" type="line"/>
      <point x="291" y="700" type="line"/>
    </contour>
    <contour>
      <point x="227" y="292" type="line"/>
      <point x="349" y="599" type="line"/>
      <point x="471" y="292" type="line"/>
    </contour>
  </outline>
</glyph>
<glyph name="aogonek" format="2">
  <advance width="532"/>
  <unicode hex="0105"/>
  <outline>
    <contour>
      <point x="220" y="-9" type="curve" smooth="yes"/>
      <point x="282" y="-9"/>
      <point x="333" y="8"/>
      <point x="378" y="44" type="curve"/>
      <point x="378" y="0" type="line"/>
      <point x="410" y="0" type="line"/>
      <point x="342" y="-45"/>
      <point x="313" y="-85"/>
      <point x="313" y="-133" type="curve"/>
      <point x="313" y="-186"/>
      <point x="354" y="-221"/>
      <point x="415" y="-221" type="curve"/>
      <point x="443" y="-221"/>
      <point x="470" y="-213"/>
      <point x="492" y="-200" type="curve"/>
      <point x="476" y="-151" type="line"/>
      <point x="463" y="-160"/>
      <point x="447" y="-165"/>
      <point x="431" y="-165" type="curve"/>
      <point x="397" y="-165"/>
      <point x="376" y="-146"/>
      <point x="376" y="-115" type="curve"/>
      <point x="376" y="-78"/>
      <point x="407" y="-42"/>
      <point x="476" y="0" type="curve"/>
      <point x="476" y="337" type="line"/>
      <point x="476" y="454"/>
      <point x="400" y="519"/>
      <point x="268" y="519" type="curve" smooth="yes"/>
      <point x="201" y="519"/>
      <point x="135" y="503"/>
      <point x="59" y="467" type="curve"/>
      <point x="96" y="392" type="line"/>
      <point x="159" y="422"/>
      <point x="207" y="435"/>
      <point x="254" y="435" type="curve" smooth="yes"/>
      <point x="335" y="435"/>
      <point x="378" y="399"/>
      <point x="378" y="327" type="curve"/>
      <point x="378" y="273" type="line"/>
      <point x="335" y="291"/>
      <point x="288" y="301"/>
      <point x="239" y="301" type="curve" smooth="yes"/>
      <point x="111" y="301"/>
      <point x="33" y="242"/>
      <point x="33" y="146" type="curve" smooth="yes"/>
      <point x="33" y="54"/>
      <point x="109" y="-9"/>
    </contour>
    <contour>
      <point x="129" y="148" type="curve" smooth="yes"/>
      <point x="129" y="199"/>
      <point x="174" y="232"/>
      <point x="247" y="232" type="curve" smooth="yes"/>
      <point x="298" y="232"/>
      <point x="339" y="222"/>
      <point x="378" y="201" type="curve"/>
      <point x="378" y="113" type="line"/>
      <point x="342" y="81"/>
      <point x="297" y="65"/>
      <point x="243" y="65" type="curve"/>
      <point x="175" y="65"/>
      <point x="129" y="99"/>
    </contour>
  </outline>
</glyph>
<glyph name="Dcroat" format="2">
  <advance width="754"/>
  <unicode hex="0110"/>
  <outline>
    <contour>
      <point x="98" y="0" type="line"/>
      <point x="345" y="0" type="line" smooth="yes"/>
      <point x="557" y="0"/>
      <point x="714" y="149"/>
      <point x="714" y="349" type="curve" smooth="yes"/>
      <point x="714" y="551"/>
      <point x="556" y="700"/>
      <point x="345" y="700" type="curve" smooth="yes"/>
      <point x="98" y="700" type="line"/>
      <point x="98" y="393" type="line"/>
      <point x="15" y="393" type="line"/>
      <point x="15" y="307" type="line"/>
      <point x="98" y="307" type="line"/>
    </contour>
    <contour>
      <point x="347" y="606" type="line" smooth="yes"/>
      <point x="493" y="606"/>
      <point x="606" y="495"/>
      <point x="606" y="349" type="curve" smooth="yes"/>
      <point x="606" y="205"/>
      <point x="493" y="94"/>
      <point x="347" y="94" type="curve" smooth="yes"/>
      <point x="203" y="94" type="line"/>
      <point x="203" y="307" type="line"/>
      <point x="382" y="307" type="line"/>
      <point x="382" y="393" type="line"/>
      <point x="203" y="393" type="line"/>
      <point x="203" y="606" type="line"/>
    </contour>
  </outline>
</glyph>
<glyph name="Eogonek" format="2">
  <advance width="628"/>
  <unicode hex="0118"/>
  <outline>
    <contour>
      <point x="71" y="0" type="line"/>
      <point x="526" y="0" type="line"/>
      <point x="458" y="-45"/>
      <point x="429" y="-85"/>
      <point x="429" y="-133" type="curve"/>
      <point x="429" y="-186"/>
      <point x="470" y="-221"/>
      <point x="531" y="-221" type="curve"/>
      <point x="559" y="-221"/>
      <point x="586" y="-213"/>
      <point x="608" y="-200" type="curve"/>
      <point x="592" y="-151" type="line"/>
      <point x="579" y="-160"/>
      <point x="563" y="-165"/>
      <point x="547" y="-165" type="curve"/>
      <point x="513" y="-165"/>
      <point x="492" y="-146"/>
      <point x="492" y="-115" type="curve"/>
      <point x="492" y="-78"/>
      <point x="523" y="-42"/>
      <point x="592" y="0" type="curve"/>
      <point x="591" y="0" type="line"/>
      <point x="591" y="92" type="line"/>
      <point x="176" y="92" type="line"/>
      <point x="176" y="308" type="line"/>
      <point x="446" y="308" type="line"/>
      <point x="446" y="398" type="line"/>
      <point x="176" y="398" type="line"/>
      <point x="176" y="608" type="line"/>
      <point x="587" y="608" type="line"/>
      <point x="587" y="700" type="line"/>
      <point x="71" y="700" type="line"/>
    </contour>
  </outline>
</glyph>
<glyph name="eogonek" format="2">
  <advance width="573"/>
  <unicode hex="0119"/>
  <outline>
    <contour>
      <point x="383" y="0" type="curve"/>
      <point x="425" y="10"/>
      <point x="463" y="29"/>
      <point x="500" y="58" type="curve"/>
      <point x="436" y="121" type="line"/>
      <point x="404" y="93"/>
      <point x="357" y="76"/>
      <point x="307" y="76" type="curve"/>
      <point x="219" y="76"/>
      <point x="149" y="137"/>
      <point x="135" y="222" type="curve"/>
      <point x="537" y="222" type="line"/>
      <point x="537" y="251" type="line"/>
      <point x="537" y="401"/>
      <point x="431" y="517"/>
      <point x="291" y="517" type="curve"/>
      <point x="148" y="517"/>
      <point x="36" y="402"/>
      <point x="36" y="255" type="curve" smooth="yes"/>
      <point x="36" y="106"/>
      <point x="153" y="-9"/>
      <point x="303" y="-9" type="curve"/>
      <point x="304" y="-9" type="line"/>
      <point x="245" y="-51"/>
      <point x="220" y="-88"/>
      <point x="220" y="-133" type="curve"/>
      <point x="220" y="-186"/>
      <point x="261" y="-221"/>
      <point x="322" y="-221" type="curve"/>
      <point x="350" y="-221"/>
      <point x="377" y="-213"/>
      <point x="399" y="-200" type="curve"/>
      <point x="383" y="-151" type="line"/>
      <point x="370" y="-160"/>
      <point x="354" y="-165"/>
      <point x="338" y="-165" type="curve"/>
      <point x="304" y="-165"/>
      <point x="283" y="-146"/>
      <point x="283" y="-115" type="curve"/>
      <point x="283" y="-78"/>
      <point x="314" y="-42"/>
    </contour>
    <contour>
      <point x="289" y="433" type="curve"/>
      <point x="363" y="433"/>
      <point x="423" y="375"/>
      <point x="438" y="297" type="curve"/>
      <point x="136" y="297" type="line"/>
      <point x="151" y="378"/>
      <point x="212" y="433"/>
    </contour>
  </outline>
</glyph>
<glyph name="Hbar" format="2">
  <advance width="739"/>
  <unicode hex="0126"/>
  <outline>
    <contour>
      <point x="79" y="0" type="line"/>
      <point x="184" y="0" type="line"/>
      <point x="184" y="305" type="line"/>
      <point x="555" y="305" type="line"/>
      <point x="555" y="0" type="line"/>
      <point x="660" y="0" type="line"/>
      <point x="660" y="510" type="line"/>
      <point x="726" y="510" type="line"/>
      <point x="726" y="596" type="line"/>
      <point x="660" y="596" type="line"/>
      <point x="660" y="700" type="line"/>
      <point x="555" y="700" type="line"/>
      <point x="555" y="596" type="line"/>
      <point x="184" y="596" type="line"/>
      <point x="184" y="700" type="line"/>
      <point x="79" y="700" type="line"/>
      <point x="79" y="596" type="line"/>
      <point x="13" y="596" type="line"/>
      <point x="13" y="510" type="line"/>
      <point x="79" y="510" type="line"/>
    </contour>
    <contour>
      <point x="184" y="400" type="line"/>
      <point x="184" y="510" type="line"/>
      <point x="555" y="510" type="line"/>
      <point x="555" y="400" type="line"/>
    </contour>
  </outline>
</glyph>
<glyph name="hbar" format="2">
  <advance width="567"/>
  <unicode hex="0127"/>
  <outline>
    <contour>
      <point x="59" y="0" type="line"/>
      <point x="159" y="0" type="line"/>
      <point x="159" y="366" type="line"/>
      <point x="187" y="409"/>
      <point x="231" y="432"/>
      <point x="285" y="432" type="curve" smooth="yes"/>
      <point x="362" y="432"/>
      <point x="411" y="383"/>
      <point x="411" y="303" type="curve"/>
      <point x="411" y="0" type="line"/>
      <point x="511" y="0" type="line"/>
      <point x="511" y="320" type="line" smooth="yes"/>
      <point x="511" y="438"/>
      <point x="429" y="519"/>
      <point x="312" y="519" type="curve"/>
      <point x="251" y="519"/>
      <point x="199" y="498"/>
      <point x="159" y="458" type="curve"/>
      <point x="159" y="583" type="line"/>
      <point x="312" y="583" type="line"/>
      <point x="312" y="652" type="line"/>
      <point x="159" y="652" type="line"/>
      <point x="159" y="722" type="line"/>
      <point x="59" y="700" type="line"/>
      <point x="59" y="652" type="line"/>
      <point x="-2" y="652" type="line"/>
      <point x="-2" y="583" type="line"/>
      <point x="59" y="583" type="line"/>
    </contour>
  </outline>
</glyph>
<glyph name="Iogonek" format="2">
  <advance width="248"/>
  <unicode hex="012E"/>
  <outline>
    <contour>
      <point x="71" y="0" type="line"/>
      <point x="111" y="0" type="line"/>
      <point x="43" y="-45"/>
      <point x="14" y="-85"/>
      <point x="14" y="-133" type="curve"/>
      <point x="14" y="-186"/>
      <point x="55" y="-221"/>
      <point x="116" y="-221" type="curve"/>
      <point x="144" y="-221"/>
      <point x="171" y="-213"/>
      <point x="193" y="-200" type="curve"/>
      <point x="177" y="-151" type="line"/>
      <point x="164" y="-160"/>
      <point x="148" y="-165"/>
      <point x="132" y="-165" type="curve"/>
      <point x="98" y="-165"/>
      <point x="77" y="-146"/>
      <point x="77" y="-115" type="curve"/>
      <point x="77" y="-78"/>
      <point x="108" y="-42"/>
      <point x="177" y="0" type="curve"/>
      <point x="176" y="0" type="line"/>
      <point x="176" y="700" type="line"/>
      <point x="71" y="700" type="line"/>
    </contour>
  </outline>
</glyph>
<glyph name="iogonek" format="2">
  <advance width="218"/>
  <unicode hex="012F"/>
  <outline>
    <contour>
      <point x="109" y="591" type="curve" smooth="yes"/>
      <point x="143" y="591"/>
      <point x="171" y="619"/>
      <point x="171" y="653" type="curve" smooth="yes"/>
      <point x="171" y="687"/>
      <point x="143" y="715"/>
      <point x="109" y="715" type="curve" smooth="yes"/>
      <point x="75" y="715"/>
      <point x="48" y="687"/>
      <point x="48" y="653" type="curve" smooth="yes"/>
      <point x="48" y="619"/>
      <point x="75" y="591"/>
    </contour>
    <contour>
      <point x="159" y="0" type="curve"/>
      <point x="159" y="509" type="line"/>
      <point x="59" y="509" type="line"/>
      <point x="59" y="0" type="line"/>
      <point x="93" y="0" type="line"/>
      <point x="25" y="-45"/>
      <point x="-4" y="-85"/>
      <point x="-4" y="-133" type="curve"/>
      <point x="-4" y="-186"/>
      <point x="37" y="-221"/>
      <point x="98" y="-221" type="curve"/>
      <point x="126" y="-221"/>
      <point x="153" y="-213"/>
      <point x="175" y="-200" type="curve"/>
      <point x="159" y="-151" type="line"/>
      <point x="146" y="-160"/>
      <point x="130" y="-165"/>
      <point x="114" y="-165" type="curve"/>
      <point x="80" y="-165"/>
      <point x="59" y="-146"/>
      <point x="59" y="-115" type="curve"/>
      <point x="59" y="-78"/>
      <point x="90" y="-42"/>
    </contour>
  </outline>
</glyph>
<glyph name="kgreenlandic" format="2">
  <advance width="524"/>
  <unicode hex="0138"/>
  <outline>
    <contour>
      <point x="59" y="0" type="line"/>
      <point x="159" y="0" type="line"/>
      <point x="159" y="240" type="line"/>
      <point x="405" y="0" type="line"/>
      <point x="537" y="0" type="line"/>
      <point x="261" y="270" type="line"/>
      <point x="523" y="509" type="line"/>
      <point x="406" y="509" type="line"/>
      <point x="159" y="285" type="line"/>
      <point x="159" y="509" type="line"/>
      <point x="59" y="509" type="line"/>
    </contour>
  </outline>
</glyph>
<glyph name="lacute" format="2">
  <advance width="218"/>
  <unicode hex="013A"/>
  <outline>
    <contour>
      <point x="141" y="916" type="line"/>
      <point x="49" y="794" type="line"/>
      <point x="133" y="794" type="line"/>
      <point x="261" y="916" type="line"/>
    </contour>
    <contour>
      <point x="59" y="0" type="line"/>
      <point x="159" y="0" type="line"/>
      <point x="159" y="700" type="line"/>
      <point x="59" y="700" type="line"/>
    </contour>
  </outline>
</glyph>
<glyph name="Lslash" format="2">
  <advance width="627"/>
  <unicode hex="0141"/>
  <outline>
    <contour>
      <point x="90" y="0" type="line"/>
      <point x="598" y="0" type="line"/>
      <point x="598" y="93" type="line"/>
      <point x="195" y="93" type="line"/>
      <point x="195" y="295" type="line"/>
      <point x="386" y="429" type="line"/>
      <point x="386" y="523" type="line"/>
      <point x="195" y="389" type="line"/>
      <point x="195" y="700" type="line"/>
      <point x="90" y="700" type="line"/>
      <point x="90" y="315" type="line"/>
      <point x="11" y="260" type="line"/>
      <point x="11" y="166" type="line"/>
      <point x="90" y="221" type="line"/>
    </contour>
  </outline>
</glyph>
<glyph name="lslash" format="2">
  <advance width="260"/>
  <unicode hex="0142"/>
  <outline>
    <contour>
      <point x="8" y="330" type="line"/>
      <point x="8" y="235" type="line"/>
      <point x="81" y="291" type="line"/>
      <point x="81" y="0" type="line"/>
      <point x="181" y="0" type="line"/>
      <point x="181" y="367" type="line"/>
      <point x="254" y="423" type="line"/>
      <point x="254" y="518" type="line"/>
      <point x="181" y="462" type="line"/>
      <point x="181" y="722" type="line"/>
      <point x="81" y="700" type="line"/>
      <point x="81" y="386" type="line"/>
    </contour>
  </outline>
</glyph>
<glyph name="Eng" format="2">
  <advance width="735"/>
  <unicode hex="014A"/>
  <outline>
    <contour>
      <point x="564" y="2" type="line"/>
      <point x="564" y="-66" type="line"/>
      <point x="564" y="-110"/>
      <point x="546" y="-128"/>
      <point x="503" y="-128" type="curve"/>
      <point x="485" y="-128"/>
      <point x="475" y="-127"/>
      <point x="461" y="-124" type="curve"/>
      <point x="461" y="-204" type="line"/>
      <point x="475" y="-208"/>
      <point x="501" y="-211"/>
      <point x="519" y="-211" type="curve"/>
      <point x="611" y="-211"/>
      <point x="663" y="-161"/>
      <point x="663" y="-74" type="curve"/>
      <point x="663" y="700" type="line"/>
      <point x="564" y="700" type="line"/>
      <point x="564" y="172" type="line"/>
      <point x="169" y="700" type="line"/>
      <point x="71" y="700" type="line"/>
      <point x="71" y="0" type="line"/>
      <point x="170" y="0" type="line"/>
      <point x="170" y="529" type="line"/>
    </contour>
  </outline>
</glyph>
<glyph name="OE" format="2">
  <advance width="1091"/>
  <unicode hex="0152"/>
  <outline>
    <contour>
      <point x="396" y="0" type="curve"/>
      <point x="1054" y="0" type="line"/>
      <point x="1054" y="92" type="line"/>
      <point x="632" y="92" type="line"/>
      <point x="695" y="146"/>
      <point x="736" y="223"/>
      <point x="746" y="308" type="curve"/>
      <point x="927" y="308" type="line"/>
      <point x="927" y="398" type="line"/>
      <point x="746" y="398" type="line"/>
      <point x="734" y="481"/>
      <point x="692" y="556"/>
      <point x="630" y="608" type="curve"/>
      <point x="1054" y="608" type="line"/>
      <point x="1054" y="700" type="line"/>
      <point x="396" y="700" type="line"/>
      <point x="199" y="700"/>
      <point x="43" y="545"/>
      <point x="43" y="350" type="curve"/>
      <point x="43" y="155"/>
      <point x="199" y="0"/>
    </contour>
    <contour>
      <point x="396" y="94" type="curve"/>
      <point x="258" y="94"/>
      <point x="150" y="206"/>
      <point x="150" y="350" type="curve"/>
      <point x="150" y="494"/>
      <point x="258" y="606"/>
      <point x="396" y="606" type="curve"/>
      <point x="535" y="606"/>
      <point x="643" y="494"/>
      <point x="643" y="350" type="curve"/>
      <point x="643" y="206"/>
      <point x="535" y="94"/>
    </contour>
  </outline>
</glyph>
<glyph name="oe" format="2">
  <advance width="1006"/>
  <unicode hex="0153"/>
  <outline>
    <contour>
      <point x="36" y="255" type="curve" smooth="yes"/>
      <point x="36" y="106"/>
      <point x="153" y="-10"/>
      <point x="301" y="-10" type="curve" smooth="yes"/>
      <point x="391" y="-10"/>
      <point x="470" y="35"/>
      <point x="516" y="105" type="curve"/>
      <point x="563" y="35"/>
      <point x="642" y="-9"/>
      <point x="735" y="-9" type="curve"/>
      <point x="812" y="-9"/>
      <point x="873" y="12"/>
      <point x="932" y="58" type="curve"/>
      <point x="868" y="121" type="line"/>
      <point x="837" y="93"/>
      <point x="790" y="76"/>
      <point x="740" y="76" type="curve"/>
      <point x="652" y="76"/>
      <point x="582" y="137"/>
      <point x="568" y="222" type="curve"/>
      <point x="970" y="222" type="line"/>
      <point x="970" y="251" type="line"/>
      <point x="970" y="401"/>
      <point x="863" y="517"/>
      <point x="724" y="517" type="curve"/>
      <point x="636" y="517"/>
      <point x="561" y="473"/>
      <point x="516" y="405" type="curve"/>
      <point x="469" y="474"/>
      <point x="391" y="519"/>
      <point x="301" y="519" type="curve" smooth="yes"/>
      <point x="153" y="519"/>
      <point x="36" y="403"/>
    </contour>
    <contour>
      <point x="721" y="433" type="curve"/>
      <point x="795" y="433"/>
      <point x="856" y="375"/>
      <point x="871" y="297" type="curve"/>
      <point x="569" y="297" type="line"/>
      <point x="584" y="378"/>
      <point x="644" y="433"/>
    </contour>
    <contour>
      <point x="301" y="78" type="curve" smooth="yes"/>
      <point x="207" y="78"/>
      <point x="134" y="156"/>
      <point x="134" y="255" type="curve" smooth="yes"/>
      <point x="134" y="354"/>
      <point x="208" y="431"/>
      <point x="301" y="431" type="curve" smooth="yes"/>
      <point x="394" y="431"/>
      <point x="468" y="354"/>
      <point x="468" y="255" type="curve" smooth="yes"/>
      <point x="468" y="156"/>
      <point x="394" y="78"/>
    </contour>
  </outline>
</glyph>
<glyph name="Scedilla" format="2">
  <advance width="613"/>
  <unicode hex="015E"/>
  <outline>
    <contour>
      <point x="8" y="116" type="line"/>
      <point x="78" y="45"/>
      <point x="170" y="1"/>
      <point x="267" y="-8" type="curve"/>
      <point x="243" y="-92" type="line"/>
      <point x="277" y="-92" type="line" smooth="yes"/>
      <point x="316" y="-92"/>
      <point x="340" y="-109"/>
      <point x="340" y="-135" type="curve"/>
      <point x="340" y="-162"/>
      <point x="318" y="-180"/>
      <point x="280" y="-180" type="curve"/>
      <point x="251" y="-180"/>
      <point x="224" y="-169"/>
      <point x="199" y="-149" type="curve"/>
      <point x="163" y="-188" type="line"/>
      <point x="194" y="-216"/>
      <point x="235" y="-230"/>
      <point x="281" y="-230" type="curve"/>
      <point x="352" y="-230"/>
      <point x="403" y="-190"/>
      <point x="403" y="-135" type="curve"/>
      <point x="403" y="-86"/>
      <point x="366" y="-54"/>
      <point x="308" y="-50" type="curve"/>
      <point x="320" y="-10" type="line"/>
      <point x="480" y="-6"/>
      <point x="587" y="79"/>
      <point x="587" y="205" type="curve"/>
      <point x="587" y="314"/>
      <point x="520" y="375"/>
      <point x="372" y="399" type="curve" smooth="yes"/>
      <point x="259" y="417" type="line" smooth="yes"/>
      <point x="169" y="432"/>
      <point x="134" y="459"/>
      <point x="134" y="516" type="curve" smooth="yes"/>
      <point x="134" y="578"/>
      <point x="195" y="620"/>
      <point x="286" y="620" type="curve" smooth="yes"/>
      <point x="364" y="620"/>
      <point x="439" y="592"/>
      <point x="515" y="534" type="curve"/>
      <point x="573" y="614" type="line"/>
      <point x="494" y="675"/>
      <point x="391" y="709"/>
      <point x="291" y="709" type="curve" smooth="yes"/>
      <point x="135" y="709"/>
      <point x="33" y="630"/>
      <point x="33" y="508" type="curve"/>
      <point x="33" y="407"/>
      <point x="96" y="347"/>
      <point x="224" y="326" type="curve" smooth="yes"/>
      <point x="341" y="307" type="line" smooth="yes"/>
      <point x="443" y="290"/>
      <point x="483" y="259"/>
      <point x="483" y="197" type="curve"/>
      <point x="483" y="128"/>
      <point x="414" y="80"/>
      <point x="313" y="80" type="curve" smooth="yes"/>
      <point x="226" y="80"/>
      <point x="148" y="116"/>
      <point x="72" y="190" type="curve"/>
    </contour>
  </outline>
</glyph>
<glyph name="scedilla" format="2">
  <advance width="465"/>
  <unicode hex="015F"/>
  <outline>
    <contour>
      <point x="11" y="66" type="line"/>
      <point x="61" y="22"/>
      <point x="129" y="-3"/>
      <point x="206" y="-8" type="curve"/>
      <point x="181" y="-93" type="line"/>
      <point x="215" y="-93" type="line" smooth="yes"/>
      <point x="254" y="-93"/>
      <point x="278" y="-110"/>
      <point x="278" y="-136" type="curve"/>
      <point x="278" y="-163"/>
      <point x="256" y="-181"/>
      <point x="218" y="-181" type="curve"/>
      <point x="189" y="-181"/>
      <point x="162" y="-170"/>
      <point x="137" y="-150" type="curve"/>
      <point x="101" y="-189" type="line"/>
      <point x="132" y="-217"/>
      <point x="173" y="-231"/>
      <point x="219" y="-231" type="curve"/>
      <point x="290" y="-231"/>
      <point x="341" y="-191"/>
      <point x="341" y="-136" type="curve"/>
      <point x="341" y="-87"/>
      <point x="304" y="-55"/>
      <point x="246" y="-51" type="curve"/>
      <point x="259" y="-8" type="line"/>
      <point x="367" y="1"/>
      <point x="447" y="66"/>
      <point x="447" y="151" type="curve" smooth="yes"/>
      <point x="447" y="230"/>
      <point x="394" y="278"/>
      <point x="293" y="293" type="curve" smooth="yes"/>
      <point x="201" y="306" type="line" smooth="yes"/>
      <point x="141" y="315"/>
      <point x="117" y="333"/>
      <point x="117" y="370" type="curve"/>
      <point x="117" y="411"/>
      <point x="158" y="439"/>
      <point x="219" y="439" type="curve"/>
      <point x="273" y="439"/>
      <point x="324" y="423"/>
      <point x="380" y="386" type="curve"/>
      <point x="431" y="452" type="line"/>
      <point x="367" y="496"/>
      <point x="301" y="517"/>
      <point x="226" y="517" type="curve"/>
      <point x="107" y="517"/>
      <point x="27" y="455"/>
      <point x="27" y="363" type="curve" smooth="yes"/>
      <point x="27" y="284"/>
      <point x="78" y="237"/>
      <point x="179" y="222" type="curve" smooth="yes"/>
      <point x="271" y="209" type="line" smooth="yes"/>
      <point x="327" y="201"/>
      <point x="353" y="180"/>
      <point x="353" y="144" type="curve" smooth="yes"/>
      <point x="353" y="99"/>
      <point x="303" y="68"/>
      <point x="231" y="68" type="curve" smooth="yes"/>
      <point x="174" y="68"/>
      <point x="118" y="90"/>
      <point x="65" y="132" type="curve"/>
    </contour>
  </outline>
</glyph>
<glyph name="tcedilla" format="2">
  <advance width="389"/>
  <unicode hex="0163"/>
  <outline>
    <contour>
      <point x="125" y="126" type="line"/>
      <point x="125" y="57"/>
      <point x="158" y="13"/>
      <point x="220" y="-3" type="curve"/>
      <point x="194" y="-93" type="line"/>
      <point x="228" y="-93" type="line" smooth="yes"/>
      <point x="267" y="-93"/>
      <point x="291" y="-110"/>
      <point x="291" y="-136" type="curve"/>
      <point x="291" y="-163"/>
      <point x="269" y="-181"/>
      <point x="231" y="-181" type="curve"/>
      <point x="202" y="-181"/>
      <point x="175" y="-170"/>
      <point x="150" y="-150" type="curve"/>
      <point x="114" y="-189" type="line"/>
      <point x="145" y="-217"/>
      <point x="186" y="-231"/>
      <point x="232" y="-231" type="curve"/>
      <point x="303" y="-231"/>
      <point x="354" y="-191"/>
      <point x="354" y="-136" type="curve"/>
      <point x="354" y="-87"/>
      <point x="317" y="-55"/>
      <point x="259" y="-51" type="curve"/>
      <point x="271" y="-9" type="line"/>
      <point x="277" y="-9" type="line"/>
      <point x="307" y="-9"/>
      <point x="345" y="-3"/>
      <point x="372" y="6" type="curve"/>
      <point x="372" y="90" type="line"/>
      <point x="347" y="81"/>
      <point x="327" y="78"/>
      <point x="299" y="78" type="curve"/>
      <point x="245" y="78"/>
      <point x="224" y="97"/>
      <point x="224" y="149" type="curve" smooth="yes"/>
      <point x="224" y="425" type="line"/>
      <point x="374" y="425" type="line"/>
      <point x="374" y="509" type="line"/>
      <point x="224" y="509" type="line"/>
      <point x="224" y="663" type="line"/>
      <point x="125" y="639" type="line"/>
      <point x="125" y="509" type="line"/>
      <point x="17" y="509" type="line"/>
      <point x="17" y="425" type="line"/>
      <point x="125" y="425" type="line"/>
    </contour>
  </outline>
</glyph>
<glyph name="tcaron" format="2">
  <advance width="394"/>
  <unicode hex="0165"/>
  <outline>
    <contour>
      <point x="301" y="776" type="line"/>
      <point x="295" y="585" type="line"/>
      <point x="372" y="585" type="line"/>
      <point x="404" y="794" type="line"/>
    </contour>
    <contour>
      <point x="125" y="126" type="line"/>
      <point x="125" y="38"/>
      <point x="178" y="-9"/>
      <point x="277" y="-9" type="curve"/>
      <point x="307" y="-9"/>
      <point x="345" y="-3"/>
      <point x="372" y="6" type="curve"/>
      <point x="372" y="90" type="line"/>
      <point x="347" y="81"/>
      <point x="327" y="78"/>
      <point x="299" y="78" type="curve"/>
      <point x="245" y="78"/>
      <point x="224" y="97"/>
      <point x="224" y="149" type="curve" smooth="yes"/>
      <point x="224" y="425" type="line"/>
      <point x="374" y="425" type="line"/>
      <point x="374" y="509" type="line"/>
      <point x="224" y="509" type="line"/>
      <point x="224" y="663" type="line"/>
      <point x="125" y="639" type="line"/>
      <point x="125" y="509" type="line"/>
      <point x="17" y="509" type="line"/>
      <point x="17" y="425" type="line"/>
      <point x="125" y="425" type="line"/>
    </contour>
  </outline>
</glyph>
<glyph name="tbar" format="2">
  <advance width="397"/>
  <unicode hex="0167"/>
  <outline>
    <contour>
      <point x="125" y="126" type="line"/>
      <point x="125" y="38"/>
      <point x="178" y="-9"/>
      <point x="277" y="-9" type="curve"/>
      <point x="307" y="-9"/>
      <point x="345" y="-3"/>
      <point x="372" y="6" type="curve"/>
      <point x="372" y="90" type="line"/>
      <point x="347" y="81"/>
      <point x="327" y="78"/>
      <point x="299" y="78" type="curve"/>
      <point x="245" y="78"/>
      <point x="224" y="97"/>
      <point x="224" y="149" type="curve" smooth="yes"/>
      <point x="224" y="249" type="line"/>
      <point x="376" y="249" type="line"/>
      <point x="376" y="324" type="line"/>
      <point x="224" y="324" type="line"/>
      <point x="224" y="425" type="line"/>
      <point x="374" y="425" type="line"/>
      <point x="374" y="509" type="line"/>
      <point x="224" y="509" type="line"/>
      <point x="224" y="663" type="line"/>
      <point x="125" y="639" type="line"/>
      <point x="125" y="509" type="line"/>
      <point x="17" y="509" type="line"/>
      <point x="17" y="425" type="line"/>
      <point x="125" y="425" type="line"/>
      <point x="125" y="324" type="line"/>
      <point x="17" y="324" type="line"/>
      <point x="17" y="249" type="line"/>
      <point x="125" y="249" type="line"/>
    </contour>
  </outline>
</glyph>
<glyph name="Uogonek" format="2">
  <advance width="712"/>
  <unicode hex="0172"/>
  <outline>
    <contour>
      <point x="654" y="299" type="curve"/>
      <point x="654" y="700" type="line"/>
      <point x="549" y="700" type="line"/>
      <point x="549" y="299" type="line"/>
      <point x="549" y="169"/>
      <point x="474" y="86"/>
      <point x="356" y="86" type="curve" smooth="yes"/>
      <point x="239" y="86"/>
      <point x="164" y="169"/>
      <point x="164" y="299" type="curve"/>
      <point x="164" y="700" type="line"/>
      <point x="59" y="700" type="line"/>
      <point x="59" y="299" type="line"/>
      <point x="59" y="109"/>
      <point x="174" y="-11"/>
      <point x="356" y="-11" type="curve"/>
      <point x="299" y="-52"/>
      <point x="275" y="-89"/>
      <point x="275" y="-133" type="curve"/>
      <point x="275" y="-186"/>
      <point x="316" y="-221"/>
      <point x="377" y="-221" type="curve"/>
      <point x="405" y="-221"/>
      <point x="432" y="-213"/>
      <point x="454" y="-200" type="curve"/>
      <point x="438" y="-151" type="line"/>
      <point x="425" y="-160"/>
      <point x="409" y="-165"/>
      <point x="393" y="-165" type="curve"/>
      <point x="359" y="-165"/>
      <point x="338" y="-146"/>
      <point x="338" y="-115" type="curve"/>
      <point x="338" y="-79"/>
      <point x="368" y="-44"/>
      <point x="433" y="-3" type="curve"/>
      <point x="570" y="27"/>
      <point x="654" y="138"/>
    </contour>
  </outline>
</glyph>
<glyph name="uogonek" format="2">
  <advance width="567"/>
  <unicode hex="0173"/>
  <outline>
    <contour>
      <point x="510" y="0" type="curve"/>
      <point x="508" y="1" type="line"/>
      <point x="508" y="509" type="line"/>
      <point x="408" y="509" type="line"/>
      <point x="408" y="144" type="line"/>
      <point x="380" y="101"/>
      <point x="337" y="77"/>
      <point x="283" y="77" type="curve" smooth="yes"/>
      <point x="206" y="77"/>
      <point x="157" y="127"/>
      <point x="157" y="207" type="curve"/>
      <point x="157" y="509" type="line"/>
      <point x="57" y="509" type="line"/>
      <point x="57" y="190" type="line" smooth="yes"/>
      <point x="57" y="72"/>
      <point x="138" y="-10"/>
      <point x="255" y="-10" type="curve"/>
      <point x="317" y="-10"/>
      <point x="368" y="11"/>
      <point x="408" y="51" type="curve"/>
      <point x="408" y="0" type="line"/>
      <point x="444" y="0" type="line"/>
      <point x="376" y="-45"/>
      <point x="347" y="-85"/>
      <point x="347" y="-133" type="curve"/>
      <point x="347" y="-186"/>
      <point x="388" y="-221"/>
      <point x="449" y="-221" type="curve"/>
      <point x="477" y="-221"/>
      <point x="504" y="-213"/>
      <point x="526" y="-200" type="curve"/>
      <point x="510" y="-151" type="line"/>
      <point x="497" y="-160"/>
      <point x="481" y="-165"/>
      <point x="465" y="-165" type="curve"/>
      <point x="431" y="-165"/>
      <point x="410" y="-146"/>
      <point x="410" y="-115" type="curve"/>
      <point x="410" y="-78"/>
      <point x="441" y="-42"/>
    </contour>
  </outline>
</glyph>
<glyph name="dotlessj" format="2">
  <advance width="218"/>
  <unicode hex="0237"/>
  <anchor x="109" y="509" name="top"/>
  <outline>
    <contour>
      <point x="-43" y="-204" type="line"/>
      <point x="-28" y="-208"/>
      <point x="-6" y="-211"/>
      <point x="15" y="-211" type="curve"/>
      <point x="108" y="-211"/>
      <point x="159" y="-161"/>
      <point x="159" y="-74" type="curve" smooth="yes"/>
      <point x="159" y="509" type="line"/>
      <point x="59" y="509" type="line"/>
      <point x="59" y="-66" type="line" smooth="yes"/>
      <point x="59" y="-110"/>
      <point x="41" y="-128"/>
      <point x="-2" y="-128" type="curve"/>
      <point x="-18" y="-128"/>
      <point x="-29" y="-127"/>
      <point x="-43" y="-124" type="curve"/>
    </contour>
  </outline>
</glyph>
<glyph name="circumflex" format="2">
  <advance width="518"/>
  <unicode hex="02C6"/>
  <anchor x="259" y="509" name="_top"/>
  <outline>
    <contour>
      <point x="338" y="600" type="line"/>
      <point x="420" y="600" type="line"/>
      <point x="312" y="727" type="line"/>
      <point x="207" y="727" type="line"/>
      <point x="99" y="600" type="line"/>
      <point x="179" y="600" type="line"/>
      <point x="259" y="677" type="line"/>
    </contour>
  </outline>
</glyph>
<glyph name="caron" format="2">
  <advance width="518"/>
  <unicode hex="02C7"/>
  <anchor x="260" y="509" name="_top"/>
  <outline>
    <contour>
      <point x="182" y="728" type="line"/>
      <point x="99" y="728" type="line"/>
      <point x="207" y="601" type="line"/>
      <point x="312" y="601" type="line"/>
      <point x="420" y="728" type="line"/>
      <point x="339" y="728" type="line"/>
      <point x="261" y="650" type="line"/>
    </contour>
  </outline>
</glyph>
<glyph name="ogonek" format="2">
  <advance width="518"/>
  <unicode hex="02DB"/>
  <anchor x="322" y="0" name="_bottom"/>
  <outline>
    <contour>
      <point x="322" y="0" type="curve"/>
      <point x="284" y="18" type="line"/>
      <point x="196" y="-35"/>
      <point x="159" y="-79"/>
      <point x="159" y="-133" type="curve"/>
      <point x="159" y="-186"/>
      <point x="200" y="-221"/>
      <point x="261" y="-221" type="curve"/>
      <point x="289" y="-221"/>
      <point x="316" y="-213"/>
      <point x="338" y="-200" type="curve"/>
      <point x="322" y="-151" type="line"/>
      <point x="309" y="-160"/>
      <point x="293" y="-165"/>
      <point x="277" y="-165" type="curve"/>
      <point x="243" y="-165"/>
      <point x="222" y="-146"/>
      <point x="222" y="-115" type="curve"/>
      <point x="222" y="-78"/>
      <point x="253" y="-42"/>
    </contour>
  </outline>
</glyph>
<glyph name="tilde" format="2">
  <advance width="518"/>
  <unicode hex="02DC"/>
  <anchor x="256" y="509" name="_top"/>
  <outline>
    <contour>
      <point x="146" y="595" type="line"/>
      <point x="155" y="635"/>
      <point x="167" y="651"/>
      <point x="190" y="651" type="curve"/>
      <point x="231" y="651"/>
      <point x="282" y="598"/>
      <point x="335" y="598" type="curve" smooth="yes"/>
      <point x="388" y="598"/>
      <point x="422" y="633"/>
      <point x="438" y="706" type="curve"/>
      <point x="374" y="720" type="line"/>
      <point x="364" y="679"/>
      <point x="352" y="664"/>
      <point x="329" y="664" type="curve"/>
      <point x="289" y="664"/>
      <point x="238" y="717"/>
      <point x="184" y="717" type="curve" smooth="yes"/>
      <point x="131" y="717"/>
      <point x="97" y="682"/>
      <point x="81" y="608" type="curve"/>
    </contour>
  </outline>
</glyph>
<glyph name="dagger" format="2">
  <advance width="435"/>
  <unicode hex="2020"/>
  <outline>
    <contour>
      <point x="176" y="0" type="line"/>
      <point x="260" y="0" type="line"/>
      <point x="260" y="430" type="line"/>
      <point x="384" y="430" type="line"/>
      <point x="384" y="509" type="line"/>
      <point x="260" y="509" type="line"/>
      <point x="260" y="700" type="line"/>
      <point x="176" y="700" type="line"/>
      <point x="176" y="509" type="line"/>
      <point x="52" y="509" type="line"/>
      <point x="52" y="430" type="line"/>
      <point x="176" y="430" type="line"/>
    </contour>
  </outline>
</glyph>
<glyph name="daggerdbl" format="2">
  <advance width="435"/>
  <unicode hex="2021"/>
  <outline>
    <contour>
      <point x="176" y="0" type="line"/>
      <point x="260" y="0" type="line"/>
      <point x="260" y="191" type="line"/>
      <point x="384" y="191" type="line"/>
      <point x="384" y="270" type="line"/>
      <point x="260" y="270" type="line"/>
      <point x="260" y="430" type="line"/>
      <point x="384" y="430" type="line"/>
      <point x="384" y="509" type="line"/>
      <point x="260" y="509" type="line"/>
      <point x="260" y="700" type="line"/>
      <point x="176" y="700" type="line"/>
      <point x="176" y="509" type="line"/>
      <point x="52" y="509" type="line"/>
      <point x="52" y="430" type="line"/>
      <point x="176" y="430" type="line"/>
      <point x="176" y="270" type="line"/>
      <point x="52" y="270" type="line"/>
      <point x="52" y="191" type="line"/>
      <point x="176" y="191" type="line"/>
    </contour>
  </outline>
</glyph>
<glyph name="guilsinglleft" format="2">
  <advance width="407"/>
  <unicode hex="2039"/>
  <outline>
    <contour>
      <point x="368" y="509" type="line"/>
      <point x="263" y="509" type="line"/>
      <point x="26" y="255" type="line"/>
      <point x="263" y="0" type="line"/>
      <point x="371" y="0" type="line"/>
      <point x="136" y="257" type="line"/>
    </contour>
  </outline>
</glyph>
<glyph name="uni2081" format="2">
  <advance width="177"/>
  <unicode hex="2081"/>
  <outline>
    <contour>
      <point x="151" y="350" type="line"/>
      <point x="110" y="350" type="line"/>
      <point x="18" y="312" type="line"/>
      <point x="18" y="255" type="line"/>
      <point x="86" y="283" type="line"/>
      <point x="86" y="0" type="line"/>
      <point x="151" y="0" type="line"/>
    </contour>
  </outline>
</glyph>
<glyph name="uni2087" format="2">
  <advance width="307"/>
  <unicode hex="2087"/>
  <outline>
    <contour>
      <point x="58" y="0" type="line"/>
      <point x="135" y="0" type="line"/>
      <point x="296" y="302" type="line"/>
      <point x="296" y="350" type="line"/>
      <point x="17" y="350" type="line"/>
      <point x="17" y="293" type="line"/>
      <point x="221" y="293" type="line"/>
    </contour>
  </outline>
</glyph>
<glyph name="uni2088" format="2">
  <advance width="331"/>
  <unicode hex="2088"/>
  <outline>
    <contour>
      <point x="166" y="-5" type="curve"/>
      <point x="247" y="-5"/>
      <point x="304" y="37"/>
      <point x="304" y="98" type="curve" smooth="yes"/>
      <point x="304" y="135"/>
      <point x="280" y="166"/>
      <point x="243" y="180" type="curve"/>
      <point x="273" y="196"/>
      <point x="293" y="225"/>
      <point x="293" y="258" type="curve" smooth="yes"/>
      <point x="293" y="313"/>
      <point x="238" y="356"/>
      <point x="165" y="356" type="curve"/>
      <point x="92" y="356"/>
      <point x="38" y="313"/>
      <point x="38" y="258" type="curve" smooth="yes"/>
      <point x="38" y="225"/>
      <point x="58" y="196"/>
      <point x="88" y="180" type="curve"/>
      <point x="51" y="165"/>
      <point x="26" y="135"/>
      <point x="26" y="98" type="curve" smooth="yes"/>
      <point x="26" y="37"/>
      <point x="83" y="-5"/>
    </contour>
    <contour>
      <point x="166" y="205" type="curve"/>
      <point x="129" y="205"/>
      <point x="102" y="226"/>
      <point x="102" y="254" type="curve"/>
      <point x="102" y="282"/>
      <point x="129" y="303"/>
      <point x="166" y="303" type="curve"/>
      <point x="201" y="303"/>
      <point x="228" y="282"/>
      <point x="228" y="254" type="curve"/>
      <point x="228" y="226"/>
      <point x="201" y="205"/>
    </contour>
    <contour>
      <point x="166" y="48" type="curve"/>
      <point x="123" y="48"/>
      <point x="92" y="71"/>
      <point x="92" y="101" type="curve"/>
      <point x="92" y="133"/>
      <point x="123" y="155"/>
      <point x="166" y="155" type="curve"/>
      <point x="208" y="155"/>
      <point x="239" y="133"/>
      <point x="239" y="101" type="curve"/>
      <point x="239" y="71"/>
      <point x="208" y="48"/>
    </contour>
  </outline>
</glyph>
<glyph name="Euro" format="2">
  <advance width="781"/>
  <unicode hex="20AC"/>
  <outline>
    <contour>
      <point x="216" y="350" type="curve"/>
      <point x="216" y="363"/>
      <point x="217" y="376"/>
      <point x="218" y="388" type="curve"/>
      <point x="479" y="388" type="line"/>
      <point x="501" y="447" type="line"/>
      <point x="229" y="447" type="line"/>
      <point x="261" y="557"/>
      <point x="349" y="627"/>
      <point x="468" y="627" type="curve"/>
      <point x="553" y="627"/>
      <point x="626" y="593"/>
      <point x="671" y="531" type="curve"/>
      <point x="741" y="584" type="line"/>
      <point x="679" y="667"/>
      <point x="584" y="711"/>
      <point x="469" y="711" type="curve" smooth="yes"/>
      <point x="298" y="711"/>
      <point x="168" y="606"/>
      <point x="131" y="447" type="curve"/>
      <point x="34" y="447" type="line"/>
      <point x="34" y="388" type="line"/>
      <point x="122" y="388" type="line"/>
      <point x="121" y="376"/>
      <point x="120" y="363"/>
      <point x="120" y="350" type="curve"/>
      <point x="120" y="338"/>
      <point x="120" y="326"/>
      <point x="121" y="314" type="curve"/>
      <point x="34" y="314" type="line"/>
      <point x="34" y="255" type="line"/>
      <point x="130" y="255" type="line"/>
      <point x="167" y="95"/>
      <point x="296" y="-11"/>
      <point x="467" y="-11" type="curve" smooth="yes"/>
      <point x="580" y="-11"/>
      <point x="676" y="35"/>
      <point x="739" y="117" type="curve"/>
      <point x="671" y="169" type="line"/>
      <point x="627" y="109"/>
      <point x="550" y="73"/>
      <point x="467" y="73" type="curve" smooth="yes"/>
      <point x="348" y="73"/>
      <point x="260" y="143"/>
      <point x="228" y="255" type="curve"/>
      <point x="431" y="255" type="line"/>
      <point x="453" y="314" type="line"/>
      <point x="218" y="314" type="line"/>
      <point x="217" y="326"/>
      <point x="216" y="338"/>
    </contour>
  </outline>
</glyph>
<glyph name="minus" format="2">
  <advance width="535"/>
  <unicode hex="2212"/>
  <outline>
    <contour>
      <point x="484" y="398" type="line"/>
      <point x="51" y="398" type="line"/>
      <point x="51" y="318" type="line"/>
      <point x="484" y="318" type="line"/>
    </contour>
  </outline>
</glyph>
<glyph name="notequal" format="2">
  <advance width="535"/>
  <unicode hex="2260"/>
  <outline>
    <contour>
      <point x="48" y="121" type="line"/>
      <point x="138" y="121" type="line"/>
      <point x="218" y="229" type="line"/>
      <point x="484" y="229" type="line"/>
      <point x="484" y="308" type="line"/>
      <point x="277" y="308" type="line"/>
      <point x="346" y="402" type="line"/>
      <point x="484" y="402" type="line"/>
      <point x="484" y="481" type="line"/>
      <point x="405" y="481" type="line"/>
      <point x="485" y="589" type="line"/>
      <point x="396" y="589" type="line"/>
      <point x="316" y="481" type="line"/>
      <point x="51" y="481" type="line"/>
      <point x="51" y="402" type="line"/>
      <point x="257" y="402" type="line"/>
      <point x="187" y="308" type="line"/>
      <point x="51" y="308" type="line"/>
      <point x="51" y="229" type="line"/>
      <point x="128" y="229" type="line"/>
    </contour>
  </outline>
</glyph>
<glyph name="aogonek.school" format="2">
  <advance width="607"/>
  <outline>
    <contour>
      <point x="449" y="0" type="line"/>
      <point x="482" y="0" type="line"/>
      <point x="414" y="-45"/>
      <point x="385" y="-85"/>
      <point x="385" y="-133" type="curve"/>
      <point x="385" y="-186"/>
      <point x="426" y="-221"/>
      <point x="487" y="-221" type="curve"/>
      <point x="515" y="-221"/>
      <point x="542" y="-213"/>
      <point x="564" y="-200" type="curve"/>
      <point x="548" y="-151" type="line"/>
      <point x="535" y="-160"/>
      <point x="519" y="-165"/>
      <point x="503" y="-165" type="curve"/>
      <point x="469" y="-165"/>
      <point x="448" y="-146"/>
      <point x="448" y="-115" type="curve"/>
      <point x="448" y="-78"/>
      <point x="479" y="-42"/>
      <point x="548" y="0" type="curve"/>
      <point x="548" y="509" type="line"/>
      <point x="448" y="509" type="line"/>
      <point x="448" y="467" type="line"/>
      <point x="404" y="499"/>
      <point x="351" y="517"/>
      <point x="295" y="517" type="curve"/>
      <point x="149" y="517"/>
      <point x="36" y="402"/>
      <point x="36" y="255" type="curve" smooth="yes"/>
      <point x="36" y="107"/>
      <point x="149" y="-8"/>
      <point x="293" y="-8" type="curve"/>
      <point x="352" y="-8"/>
      <point x="406" y="12"/>
      <point x="449" y="48" type="curve"/>
    </contour>
    <contour>
      <point x="134" y="256" type="curve" smooth="yes"/>
      <point x="134" y="356"/>
      <point x="209" y="431"/>
      <point x="307" y="431" type="curve"/>
      <point x="363" y="431"/>
      <point x="415" y="409"/>
      <point x="448" y="371" type="curve"/>
      <point x="448" y="140" type="line"/>
      <point x="414" y="101"/>
      <point x="364" y="79"/>
      <point x="307" y="79" type="curve"/>
      <point x="209" y="79"/>
      <point x="134" y="156"/>
    </contour>
  </outline>
</glyph>
<glyph name="cordinal" format="2">
  <advance width="412"/>
  <outline>
    <contour>
      <point x="235" y="380" type="curve" smooth="yes"/>
      <point x="166" y="380"/>
      <point x="114" y="436"/>
      <point x="114" y="507" type="curve" smooth="yes"/>
      <point x="114" y="579"/>
      <point x="166" y="635"/>
      <point x="234" y="635" type="curve" smooth="yes"/>
      <point x="272" y="635"/>
      <point x="308" y="619"/>
      <point x="337" y="588" type="curve"/>
      <point x="387" y="642" type="line"/>
      <point x="348" y="683"/>
      <point x="291" y="707"/>
      <point x="232" y="707" type="curve"/>
      <point x="120" y="707"/>
      <point x="33" y="619"/>
      <point x="33" y="507" type="curve" smooth="yes"/>
      <point x="33" y="396"/>
      <point x="120" y="309"/>
      <point x="232" y="309" type="curve" smooth="yes"/>
      <point x="290" y="309"/>
      <point x="345" y="332"/>
      <point x="385" y="374" type="curve"/>
      <point x="336" y="426" type="line"/>
      <point x="306" y="395"/>
      <point x="273" y="380"/>
    </contour>
  </outline>
</glyph>
<glyph name="g.alt" format="2">
  <advance width="559"/>
  <note>
Version created Sun Jan 13 16:53:00 2019
</note>
  <anchor x="275" y="509" name="top"/>
  <outline>
    <contour>
      <point x="54" y="328" type="curve" smooth="yes"/>
      <point x="54" y="259"/>
      <point x="95" y="201"/>
      <point x="157" y="168" type="curve"/>
      <point x="113" y="150"/>
      <point x="86" y="118"/>
      <point x="86" y="79" type="curve"/>
      <point x="86" y="49"/>
      <point x="99" y="25"/>
      <point x="124" y="7" type="curve"/>
      <point x="61" y="-13"/>
      <point x="23" y="-50"/>
      <point x="23" y="-95" type="curve" smooth="yes"/>
      <point x="23" y="-171"/>
      <point x="110" y="-215"/>
      <point x="266" y="-215" type="curve" smooth="yes"/>
      <point x="442" y="-215"/>
      <point x="554" y="-152"/>
      <point x="554" y="-54" type="curve" smooth="yes"/>
      <point x="554" y="13"/>
      <point x="502" y="54"/>
      <point x="412" y="58" type="curve" smooth="yes"/>
      <point x="233" y="65" type="line" smooth="yes"/>
      <point x="194" y="67"/>
      <point x="175" y="80"/>
      <point x="175" y="104" type="curve" smooth="yes"/>
      <point x="175" y="123"/>
      <point x="191" y="138"/>
      <point x="218" y="147" type="curve"/>
      <point x="235" y="143"/>
      <point x="254" y="141"/>
      <point x="273" y="141" type="curve" smooth="yes"/>
      <point x="397" y="141"/>
      <point x="491" y="222"/>
      <point x="491" y="328" type="curve" smooth="yes"/>
      <point x="491" y="371"/>
      <point x="476" y="410"/>
      <point x="449" y="442" type="curve"/>
      <point x="470" y="455"/>
      <point x="496" y="462"/>
      <point x="526" y="462" type="curve" smooth="yes"/>
      <point x="539" y="462"/>
      <point x="550" y="461"/>
      <point x="558" y="460" type="curve"/>
      <point x="556" y="539" type="line"/>
      <point x="548" y="541"/>
      <point x="540" y="543"/>
      <point x="529" y="543" type="curve" smooth="yes"/>
      <point x="482" y="543"/>
      <point x="440" y="518"/>
      <point x="414" y="475" type="curve"/>
      <point x="376" y="502"/>
      <point x="327" y="519"/>
      <point x="273" y="519" type="curve" smooth="yes"/>
      <point x="151" y="519"/>
      <point x="54" y="435"/>
    </contour>
    <contour>
      <point x="397" y="328" type="curve" smooth="yes"/>
      <point x="397" y="265"/>
      <point x="343" y="216"/>
      <point x="273" y="216" type="curve" smooth="yes"/>
      <point x="203" y="216"/>
      <point x="149" y="264"/>
      <point x="149" y="328" type="curve" smooth="yes"/>
      <point x="149" y="392"/>
      <point x="203" y="442"/>
      <point x="273" y="442" type="curve" smooth="yes"/>
      <point x="343" y="442"/>
      <point x="397" y="392"/>
    </contour>
    <contour>
      <point x="115" y="-82" type="curve"/>
      <point x="115" y="-52"/>
      <point x="144" y="-29"/>
      <point x="194" y="-18" type="curve"/>
      <point x="206" y="-20"/>
      <point x="220" y="-22"/>
      <point x="234" y="-22" type="curve" smooth="yes"/>
      <point x="394" y="-29" type="line" smooth="yes"/>
      <point x="434" y="-31"/>
      <point x="454" y="-45"/>
      <point x="454" y="-71" type="curve" smooth="yes"/>
      <point x="454" y="-118"/>
      <point x="380" y="-147"/>
      <point x="262" y="-147" type="curve" smooth="yes"/>
      <point x="168" y="-147"/>
      <point x="115" y="-124"/>
    </contour>
  </outline>
</glyph>
<glyph name="reversequoteleft" format="2">
  <advance width="216"/>
  <outline>
    <contour>
      <point x="129" y="728" type="line"/>
      <point x="24" y="728" type="line"/>
      <point x="115" y="496" type="line"/>
      <point x="191" y="496" type="line"/>
    </contour>
  </outline>
</glyph>
